<?xml version="1.0" encoding="utf-8" standalone="no"?>
<!DOCTYPE svg PUBLIC "-//W3C//DTD SVG 1.1//EN"
  "http://www.w3.org/Graphics/SVG/1.1/DTD/svg11.dtd">
<svg xmlns:xlink="http://www.w3.org/1999/xlink" width="1152pt" height="576pt" viewBox="0 0 1152 576" xmlns="http://www.w3.org/2000/svg" version="1.1">
 <metadata>
  <rdf:RDF xmlns:dc="http://purl.org/dc/elements/1.1/" xmlns:cc="http://creativecommons.org/ns#" xmlns:rdf="http://www.w3.org/1999/02/22-rdf-syntax-ns#">
   <cc:Work>
    <dc:type rdf:resource="http://purl.org/dc/dcmitype/StillImage"/>
    <dc:date>2023-03-26T15:24:29.538597</dc:date>
    <dc:format>image/svg+xml</dc:format>
    <dc:creator>
     <cc:Agent>
      <dc:title>Matplotlib v3.6.3, https://matplotlib.org/</dc:title>
     </cc:Agent>
    </dc:creator>
   </cc:Work>
  </rdf:RDF>
 </metadata>
 <defs>
  <style type="text/css">*{stroke-linejoin: round; stroke-linecap: butt}</style>
 </defs>
 <g id="figure_1">
  <g id="patch_1">
   <path d="M 0 576 
L 1152 576 
L 1152 0 
L 0 0 
z
" style="fill: #ffffff"/>
  </g>
  <g id="axes_1">
   <g id="patch_2">
    <path d="M 144 512.64 
L 406.588235 512.64 
L 406.588235 69.12 
L 144 69.12 
z
" style="fill: #ffffff"/>
   </g>
   <g id="matplotlib.axis_1">
    <g id="xtick_1">
     <g id="line2d_1"/>
     <g id="text_1">
      <!-- 0 -->
      <g style="fill: #262626" transform="translate(149.631894 526.160938) scale(0.14 -0.14)">
       <defs>
        <path id="ArialMT-30" d="M 266 2259 
Q 266 3072 433 3567 
Q 600 4063 929 4331 
Q 1259 4600 1759 4600 
Q 2128 4600 2406 4451 
Q 2684 4303 2865 4023 
Q 3047 3744 3150 3342 
Q 3253 2941 3253 2259 
Q 3253 1453 3087 958 
Q 2922 463 2592 192 
Q 2263 -78 1759 -78 
Q 1097 -78 719 397 
Q 266 969 266 2259 
z
M 844 2259 
Q 844 1131 1108 757 
Q 1372 384 1759 384 
Q 2147 384 2411 759 
Q 2675 1134 2675 2259 
Q 2675 3391 2411 3762 
Q 2147 4134 1753 4134 
Q 1366 4134 1134 3806 
Q 844 3388 844 2259 
z
" transform="scale(0.015625)"/>
       </defs>
       <use xlink:href="#ArialMT-30"/>
      </g>
     </g>
    </g>
    <g id="xtick_2">
     <g id="line2d_2"/>
     <g id="text_2">
      <!-- 20 -->
      <g style="fill: #262626" transform="translate(193.964809 526.160938) scale(0.14 -0.14)">
       <defs>
        <path id="ArialMT-32" d="M 3222 541 
L 3222 0 
L 194 0 
Q 188 203 259 391 
Q 375 700 629 1000 
Q 884 1300 1366 1694 
Q 2113 2306 2375 2664 
Q 2638 3022 2638 3341 
Q 2638 3675 2398 3904 
Q 2159 4134 1775 4134 
Q 1369 4134 1125 3890 
Q 881 3647 878 3216 
L 300 3275 
Q 359 3922 746 4261 
Q 1134 4600 1788 4600 
Q 2447 4600 2831 4234 
Q 3216 3869 3216 3328 
Q 3216 3053 3103 2787 
Q 2991 2522 2730 2228 
Q 2469 1934 1863 1422 
Q 1356 997 1212 845 
Q 1069 694 975 541 
L 3222 541 
z
" transform="scale(0.015625)"/>
       </defs>
       <use xlink:href="#ArialMT-32"/>
       <use xlink:href="#ArialMT-30" x="55.615234"/>
      </g>
     </g>
    </g>
    <g id="xtick_3">
     <g id="line2d_3"/>
     <g id="text_3">
      <!-- 40 -->
      <g style="fill: #262626" transform="translate(242.19038 526.160938) scale(0.14 -0.14)">
       <defs>
        <path id="ArialMT-34" d="M 2069 0 
L 2069 1097 
L 81 1097 
L 81 1613 
L 2172 4581 
L 2631 4581 
L 2631 1613 
L 3250 1613 
L 3250 1097 
L 2631 1097 
L 2631 0 
L 2069 0 
z
M 2069 1613 
L 2069 3678 
L 634 1613 
L 2069 1613 
z
" transform="scale(0.015625)"/>
       </defs>
       <use xlink:href="#ArialMT-34"/>
       <use xlink:href="#ArialMT-30" x="55.615234"/>
      </g>
     </g>
    </g>
    <g id="xtick_4">
     <g id="line2d_4"/>
     <g id="text_4">
      <!-- 60 -->
      <g style="fill: #262626" transform="translate(290.415951 526.160938) scale(0.14 -0.14)">
       <defs>
        <path id="ArialMT-36" d="M 3184 3459 
L 2625 3416 
Q 2550 3747 2413 3897 
Q 2184 4138 1850 4138 
Q 1581 4138 1378 3988 
Q 1113 3794 959 3422 
Q 806 3050 800 2363 
Q 1003 2672 1297 2822 
Q 1591 2972 1913 2972 
Q 2475 2972 2870 2558 
Q 3266 2144 3266 1488 
Q 3266 1056 3080 686 
Q 2894 316 2569 119 
Q 2244 -78 1831 -78 
Q 1128 -78 684 439 
Q 241 956 241 2144 
Q 241 3472 731 4075 
Q 1159 4600 1884 4600 
Q 2425 4600 2770 4297 
Q 3116 3994 3184 3459 
z
M 888 1484 
Q 888 1194 1011 928 
Q 1134 663 1356 523 
Q 1578 384 1822 384 
Q 2178 384 2434 671 
Q 2691 959 2691 1453 
Q 2691 1928 2437 2201 
Q 2184 2475 1800 2475 
Q 1419 2475 1153 2201 
Q 888 1928 888 1484 
z
" transform="scale(0.015625)"/>
       </defs>
       <use xlink:href="#ArialMT-36"/>
       <use xlink:href="#ArialMT-30" x="55.615234"/>
      </g>
     </g>
    </g>
    <g id="xtick_5">
     <g id="line2d_5"/>
     <g id="text_5">
      <!-- 80 -->
      <g style="fill: #262626" transform="translate(338.641523 526.160938) scale(0.14 -0.14)">
       <defs>
        <path id="ArialMT-38" d="M 1131 2484 
Q 781 2613 612 2850 
Q 444 3088 444 3419 
Q 444 3919 803 4259 
Q 1163 4600 1759 4600 
Q 2359 4600 2725 4251 
Q 3091 3903 3091 3403 
Q 3091 3084 2923 2848 
Q 2756 2613 2416 2484 
Q 2838 2347 3058 2040 
Q 3278 1734 3278 1309 
Q 3278 722 2862 322 
Q 2447 -78 1769 -78 
Q 1091 -78 675 323 
Q 259 725 259 1325 
Q 259 1772 486 2073 
Q 713 2375 1131 2484 
z
M 1019 3438 
Q 1019 3113 1228 2906 
Q 1438 2700 1772 2700 
Q 2097 2700 2305 2904 
Q 2513 3109 2513 3406 
Q 2513 3716 2298 3927 
Q 2084 4138 1766 4138 
Q 1444 4138 1231 3931 
Q 1019 3725 1019 3438 
z
M 838 1322 
Q 838 1081 952 856 
Q 1066 631 1291 507 
Q 1516 384 1775 384 
Q 2178 384 2440 643 
Q 2703 903 2703 1303 
Q 2703 1709 2433 1975 
Q 2163 2241 1756 2241 
Q 1359 2241 1098 1978 
Q 838 1716 838 1322 
z
" transform="scale(0.015625)"/>
       </defs>
       <use xlink:href="#ArialMT-38"/>
       <use xlink:href="#ArialMT-30" x="55.615234"/>
      </g>
     </g>
    </g>
    <g id="xtick_6">
     <g id="line2d_6"/>
     <g id="text_6">
      <!-- 100 -->
      <g style="fill: #262626" transform="translate(382.974438 526.160938) scale(0.14 -0.14)">
       <defs>
        <path id="ArialMT-31" d="M 2384 0 
L 1822 0 
L 1822 3584 
Q 1619 3391 1289 3197 
Q 959 3003 697 2906 
L 697 3450 
Q 1169 3672 1522 3987 
Q 1875 4303 2022 4600 
L 2384 4600 
L 2384 0 
z
" transform="scale(0.015625)"/>
       </defs>
       <use xlink:href="#ArialMT-31"/>
       <use xlink:href="#ArialMT-30" x="55.615234"/>
       <use xlink:href="#ArialMT-30" x="111.230469"/>
      </g>
     </g>
    </g>
    <g id="text_7">
     <!-- Epochs -->
     <g style="fill: #262626" transform="translate(251.94693 542.964375) scale(0.14 -0.14)">
      <defs>
       <path id="ArialMT-45" d="M 506 0 
L 506 4581 
L 3819 4581 
L 3819 4041 
L 1113 4041 
L 1113 2638 
L 3647 2638 
L 3647 2100 
L 1113 2100 
L 1113 541 
L 3925 541 
L 3925 0 
L 506 0 
z
" transform="scale(0.015625)"/>
       <path id="ArialMT-70" d="M 422 -1272 
L 422 3319 
L 934 3319 
L 934 2888 
Q 1116 3141 1344 3267 
Q 1572 3394 1897 3394 
Q 2322 3394 2647 3175 
Q 2972 2956 3137 2557 
Q 3303 2159 3303 1684 
Q 3303 1175 3120 767 
Q 2938 359 2589 142 
Q 2241 -75 1856 -75 
Q 1575 -75 1351 44 
Q 1128 163 984 344 
L 984 -1272 
L 422 -1272 
z
M 931 1641 
Q 931 1000 1190 694 
Q 1450 388 1819 388 
Q 2194 388 2461 705 
Q 2728 1022 2728 1688 
Q 2728 2322 2467 2637 
Q 2206 2953 1844 2953 
Q 1484 2953 1207 2617 
Q 931 2281 931 1641 
z
" transform="scale(0.015625)"/>
       <path id="ArialMT-6f" d="M 213 1659 
Q 213 2581 725 3025 
Q 1153 3394 1769 3394 
Q 2453 3394 2887 2945 
Q 3322 2497 3322 1706 
Q 3322 1066 3130 698 
Q 2938 331 2570 128 
Q 2203 -75 1769 -75 
Q 1072 -75 642 372 
Q 213 819 213 1659 
z
M 791 1659 
Q 791 1022 1069 705 
Q 1347 388 1769 388 
Q 2188 388 2466 706 
Q 2744 1025 2744 1678 
Q 2744 2294 2464 2611 
Q 2184 2928 1769 2928 
Q 1347 2928 1069 2612 
Q 791 2297 791 1659 
z
" transform="scale(0.015625)"/>
       <path id="ArialMT-63" d="M 2588 1216 
L 3141 1144 
Q 3050 572 2676 248 
Q 2303 -75 1759 -75 
Q 1078 -75 664 370 
Q 250 816 250 1647 
Q 250 2184 428 2587 
Q 606 2991 970 3192 
Q 1334 3394 1763 3394 
Q 2303 3394 2647 3120 
Q 2991 2847 3088 2344 
L 2541 2259 
Q 2463 2594 2264 2762 
Q 2066 2931 1784 2931 
Q 1359 2931 1093 2626 
Q 828 2322 828 1663 
Q 828 994 1084 691 
Q 1341 388 1753 388 
Q 2084 388 2306 591 
Q 2528 794 2588 1216 
z
" transform="scale(0.015625)"/>
       <path id="ArialMT-68" d="M 422 0 
L 422 4581 
L 984 4581 
L 984 2938 
Q 1378 3394 1978 3394 
Q 2347 3394 2619 3248 
Q 2891 3103 3008 2847 
Q 3125 2591 3125 2103 
L 3125 0 
L 2563 0 
L 2563 2103 
Q 2563 2525 2380 2717 
Q 2197 2909 1863 2909 
Q 1613 2909 1392 2779 
Q 1172 2650 1078 2428 
Q 984 2206 984 1816 
L 984 0 
L 422 0 
z
" transform="scale(0.015625)"/>
       <path id="ArialMT-73" d="M 197 991 
L 753 1078 
Q 800 744 1014 566 
Q 1228 388 1613 388 
Q 2000 388 2187 545 
Q 2375 703 2375 916 
Q 2375 1106 2209 1216 
Q 2094 1291 1634 1406 
Q 1016 1563 777 1677 
Q 538 1791 414 1992 
Q 291 2194 291 2438 
Q 291 2659 392 2848 
Q 494 3038 669 3163 
Q 800 3259 1026 3326 
Q 1253 3394 1513 3394 
Q 1903 3394 2198 3281 
Q 2494 3169 2634 2976 
Q 2775 2784 2828 2463 
L 2278 2388 
Q 2241 2644 2061 2787 
Q 1881 2931 1553 2931 
Q 1166 2931 1000 2803 
Q 834 2675 834 2503 
Q 834 2394 903 2306 
Q 972 2216 1119 2156 
Q 1203 2125 1616 2013 
Q 2213 1853 2448 1751 
Q 2684 1650 2818 1456 
Q 2953 1263 2953 975 
Q 2953 694 2789 445 
Q 2625 197 2315 61 
Q 2006 -75 1616 -75 
Q 969 -75 630 194 
Q 291 463 197 991 
z
" transform="scale(0.015625)"/>
      </defs>
      <use xlink:href="#ArialMT-45"/>
      <use xlink:href="#ArialMT-70" x="66.699219"/>
      <use xlink:href="#ArialMT-6f" x="122.314453"/>
      <use xlink:href="#ArialMT-63" x="177.929688"/>
      <use xlink:href="#ArialMT-68" x="227.929688"/>
      <use xlink:href="#ArialMT-73" x="283.544922"/>
     </g>
    </g>
   </g>
   <g id="matplotlib.axis_2">
    <g id="ytick_1">
     <g id="line2d_7"/>
     <g id="text_8">
      <!-- 0 -->
      <g style="fill: #262626" transform="translate(132.714687 497.49137) scale(0.14 -0.14)">
       <use xlink:href="#ArialMT-30"/>
      </g>
     </g>
    </g>
    <g id="ytick_2">
     <g id="line2d_8"/>
     <g id="text_9">
      <!-- 1000 -->
      <g style="fill: #262626" transform="translate(109.35875 410.43934) scale(0.14 -0.14)">
       <use xlink:href="#ArialMT-31"/>
       <use xlink:href="#ArialMT-30" x="55.615234"/>
       <use xlink:href="#ArialMT-30" x="111.230469"/>
       <use xlink:href="#ArialMT-30" x="166.845703"/>
      </g>
     </g>
    </g>
    <g id="ytick_3">
     <g id="line2d_9"/>
     <g id="text_10">
      <!-- 2000 -->
      <g style="fill: #262626" transform="translate(109.35875 323.38731) scale(0.14 -0.14)">
       <use xlink:href="#ArialMT-32"/>
       <use xlink:href="#ArialMT-30" x="55.615234"/>
       <use xlink:href="#ArialMT-30" x="111.230469"/>
       <use xlink:href="#ArialMT-30" x="166.845703"/>
      </g>
     </g>
    </g>
    <g id="ytick_4">
     <g id="line2d_10"/>
     <g id="text_11">
      <!-- 3000 -->
      <g style="fill: #262626" transform="translate(109.35875 236.33528) scale(0.14 -0.14)">
       <defs>
        <path id="ArialMT-33" d="M 269 1209 
L 831 1284 
Q 928 806 1161 595 
Q 1394 384 1728 384 
Q 2125 384 2398 659 
Q 2672 934 2672 1341 
Q 2672 1728 2419 1979 
Q 2166 2231 1775 2231 
Q 1616 2231 1378 2169 
L 1441 2663 
Q 1497 2656 1531 2656 
Q 1891 2656 2178 2843 
Q 2466 3031 2466 3422 
Q 2466 3731 2256 3934 
Q 2047 4138 1716 4138 
Q 1388 4138 1169 3931 
Q 950 3725 888 3313 
L 325 3413 
Q 428 3978 793 4289 
Q 1159 4600 1703 4600 
Q 2078 4600 2393 4439 
Q 2709 4278 2876 4000 
Q 3044 3722 3044 3409 
Q 3044 3113 2884 2869 
Q 2725 2625 2413 2481 
Q 2819 2388 3044 2092 
Q 3269 1797 3269 1353 
Q 3269 753 2831 336 
Q 2394 -81 1725 -81 
Q 1122 -81 723 278 
Q 325 638 269 1209 
z
" transform="scale(0.015625)"/>
       </defs>
       <use xlink:href="#ArialMT-33"/>
       <use xlink:href="#ArialMT-30" x="55.615234"/>
       <use xlink:href="#ArialMT-30" x="111.230469"/>
       <use xlink:href="#ArialMT-30" x="166.845703"/>
      </g>
     </g>
    </g>
    <g id="ytick_5">
     <g id="line2d_11"/>
     <g id="text_12">
      <!-- 4000 -->
      <g style="fill: #262626" transform="translate(109.35875 149.283251) scale(0.14 -0.14)">
       <use xlink:href="#ArialMT-34"/>
       <use xlink:href="#ArialMT-30" x="55.615234"/>
       <use xlink:href="#ArialMT-30" x="111.230469"/>
       <use xlink:href="#ArialMT-30" x="166.845703"/>
      </g>
     </g>
    </g>
    <g id="text_13">
     <!-- Loss(BCE) -->
     <g style="fill: #262626" transform="translate(102.412188 324.720625) rotate(-90) scale(0.14 -0.14)">
      <defs>
       <path id="ArialMT-4c" d="M 469 0 
L 469 4581 
L 1075 4581 
L 1075 541 
L 3331 541 
L 3331 0 
L 469 0 
z
" transform="scale(0.015625)"/>
       <path id="ArialMT-28" d="M 1497 -1347 
Q 1031 -759 709 28 
Q 388 816 388 1659 
Q 388 2403 628 3084 
Q 909 3875 1497 4659 
L 1900 4659 
Q 1522 4009 1400 3731 
Q 1209 3300 1100 2831 
Q 966 2247 966 1656 
Q 966 153 1900 -1347 
L 1497 -1347 
z
" transform="scale(0.015625)"/>
       <path id="ArialMT-42" d="M 469 0 
L 469 4581 
L 2188 4581 
Q 2713 4581 3030 4442 
Q 3347 4303 3526 4014 
Q 3706 3725 3706 3409 
Q 3706 3116 3547 2856 
Q 3388 2597 3066 2438 
Q 3481 2316 3704 2022 
Q 3928 1728 3928 1328 
Q 3928 1006 3792 729 
Q 3656 453 3456 303 
Q 3256 153 2954 76 
Q 2653 0 2216 0 
L 469 0 
z
M 1075 2656 
L 2066 2656 
Q 2469 2656 2644 2709 
Q 2875 2778 2992 2937 
Q 3109 3097 3109 3338 
Q 3109 3566 3000 3739 
Q 2891 3913 2687 3977 
Q 2484 4041 1991 4041 
L 1075 4041 
L 1075 2656 
z
M 1075 541 
L 2216 541 
Q 2509 541 2628 563 
Q 2838 600 2978 687 
Q 3119 775 3209 942 
Q 3300 1109 3300 1328 
Q 3300 1584 3169 1773 
Q 3038 1963 2805 2039 
Q 2572 2116 2134 2116 
L 1075 2116 
L 1075 541 
z
" transform="scale(0.015625)"/>
       <path id="ArialMT-43" d="M 3763 1606 
L 4369 1453 
Q 4178 706 3683 314 
Q 3188 -78 2472 -78 
Q 1731 -78 1267 223 
Q 803 525 561 1097 
Q 319 1669 319 2325 
Q 319 3041 592 3573 
Q 866 4106 1370 4382 
Q 1875 4659 2481 4659 
Q 3169 4659 3637 4309 
Q 4106 3959 4291 3325 
L 3694 3184 
Q 3534 3684 3231 3912 
Q 2928 4141 2469 4141 
Q 1941 4141 1586 3887 
Q 1231 3634 1087 3207 
Q 944 2781 944 2328 
Q 944 1744 1114 1308 
Q 1284 872 1643 656 
Q 2003 441 2422 441 
Q 2931 441 3284 734 
Q 3638 1028 3763 1606 
z
" transform="scale(0.015625)"/>
       <path id="ArialMT-29" d="M 791 -1347 
L 388 -1347 
Q 1322 153 1322 1656 
Q 1322 2244 1188 2822 
Q 1081 3291 891 3722 
Q 769 4003 388 4659 
L 791 4659 
Q 1378 3875 1659 3084 
Q 1900 2403 1900 1659 
Q 1900 816 1576 28 
Q 1253 -759 791 -1347 
z
" transform="scale(0.015625)"/>
      </defs>
      <use xlink:href="#ArialMT-4c"/>
      <use xlink:href="#ArialMT-6f" x="55.615234"/>
      <use xlink:href="#ArialMT-73" x="111.230469"/>
      <use xlink:href="#ArialMT-73" x="161.230469"/>
      <use xlink:href="#ArialMT-28" x="211.230469"/>
      <use xlink:href="#ArialMT-42" x="244.53125"/>
      <use xlink:href="#ArialMT-43" x="311.230469"/>
      <use xlink:href="#ArialMT-45" x="383.447266"/>
      <use xlink:href="#ArialMT-29" x="450.146484"/>
     </g>
    </g>
   </g>
   <g id="PolyCollection_1"/>
   <g id="PolyCollection_2"/>
   <g id="PolyCollection_3"/>
   <g id="line2d_12">
    <path d="M 155.935829 492.353197 
L 158.347107 492.397697 
L 160.758386 492.41026 
L 163.169665 492.426032 
L 165.580943 492.434816 
L 167.992222 492.438313 
L 170.4035 492.440969 
L 172.814779 492.443657 
L 175.226057 492.446156 
L 177.637336 492.448392 
L 180.048614 492.450535 
L 182.459893 492.452741 
L 184.871172 492.455023 
L 187.28245 492.45724 
L 189.693729 492.45925 
L 192.105007 492.460968 
L 194.516286 492.462319 
L 196.927564 492.463315 
L 199.338843 492.464028 
L 201.750122 492.464544 
L 204.1614 492.464924 
L 206.572679 492.465226 
L 208.983957 492.465489 
L 211.395236 492.465736 
L 213.806514 492.466003 
L 216.217793 492.466316 
L 218.629071 492.466685 
L 221.04035 492.467113 
L 223.451629 492.46758 
L 225.862907 492.46805 
L 228.274186 492.468493 
L 230.685464 492.468889 
L 233.096743 492.469229 
L 235.508021 492.469518 
L 237.9193 492.469768 
L 240.330579 492.469995 
L 242.741857 492.470213 
L 245.153136 492.470431 
L 247.564414 492.470662 
L 249.975693 492.470909 
L 252.386971 492.47118 
L 254.79825 492.471471 
L 257.209528 492.471775 
L 259.620807 492.472087 
L 262.032086 492.472395 
L 264.443364 492.472694 
L 266.854643 492.47298 
L 269.265921 492.473251 
L 271.6772 492.473508 
L 274.088478 492.473753 
L 276.499757 492.473985 
L 278.911035 492.474204 
L 281.322314 492.474407 
L 283.733593 492.474595 
L 286.144871 492.47477 
L 288.55615 492.474935 
L 290.967428 492.475096 
L 293.378707 492.475254 
L 295.789985 492.475413 
L 298.201264 492.475574 
L 300.612543 492.475739 
L 303.023821 492.475906 
L 305.4351 492.476078 
L 307.846378 492.476251 
L 310.257657 492.476423 
L 312.668935 492.476592 
L 315.080214 492.476754 
L 317.491492 492.476909 
L 319.902771 492.477057 
L 322.31405 492.477199 
L 324.725328 492.477335 
L 327.136607 492.477467 
L 329.547885 492.477594 
L 331.959164 492.477716 
L 334.370442 492.477835 
L 336.781721 492.477949 
L 339.193 492.478061 
L 341.604278 492.478169 
L 344.015557 492.478276 
L 346.426835 492.47838 
L 348.838114 492.478483 
L 351.249392 492.478583 
L 353.660671 492.478682 
L 356.071949 492.478778 
L 358.483228 492.47887 
L 360.894507 492.47896 
L 363.305785 492.479045 
L 365.717064 492.479125 
L 368.128342 492.479202 
L 370.539621 492.479275 
L 372.950899 492.479345 
L 375.362178 492.479411 
L 377.773456 492.479476 
L 380.184735 492.479539 
L 382.596014 492.4796 
L 385.007292 492.47966 
L 387.418571 492.479718 
L 389.829849 492.479775 
L 392.241128 492.47983 
L 394.652406 492.479883 
" clip-path="url(#p8171c3f08b)" style="fill: none; stroke: #1f77b4; stroke-width: 1.5; stroke-linecap: round"/>
   </g>
   <g id="line2d_13">
    <path d="M 155.935829 89.28 
L 158.347107 477.165771 
L 160.758386 486.36467 
L 163.169665 489.506679 
L 165.580943 491.008492 
L 167.992222 491.647098 
L 170.4035 491.958773 
L 172.814779 492.112845 
L 175.226057 492.158811 
L 177.637336 492.153326 
L 180.048614 492.158032 
L 182.459893 492.195887 
L 184.871172 492.245152 
L 187.28245 492.281745 
L 189.693729 492.30282 
L 192.105007 492.317817 
L 194.516286 492.337772 
L 196.927564 492.365125 
L 199.338843 492.393363 
L 201.750122 492.4142 
L 204.1614 492.424279 
L 206.572679 492.426417 
L 208.983957 492.42638 
L 211.395236 492.428359 
L 213.806514 492.432766 
L 216.217793 492.437794 
L 218.629071 492.441964 
L 221.04035 492.44535 
L 223.451629 492.448735 
L 225.862907 492.45227 
L 228.274186 492.455196 
L 230.685464 492.456787 
L 233.096743 492.45718 
L 235.508021 492.457242 
L 237.9193 492.457654 
L 240.330579 492.45835 
L 242.741857 492.458823 
L 245.153136 492.458817 
L 247.564414 492.458604 
L 249.975693 492.458613 
L 252.386971 492.458953 
L 254.79825 492.459389 
L 257.209528 492.459723 
L 259.620807 492.460102 
L 262.032086 492.46085 
L 264.443364 492.46207 
L 266.854643 492.463481 
L 269.265921 492.464678 
L 271.6772 492.465476 
L 274.088478 492.465989 
L 276.499757 492.466407 
L 278.911035 492.466797 
L 281.322314 492.46711 
L 283.733593 492.467324 
L 286.144871 492.467495 
L 288.55615 492.467673 
L 290.967428 492.467819 
L 293.378707 492.467853 
L 295.789985 492.467765 
L 298.201264 492.467639 
L 300.612543 492.467568 
L 303.023821 492.467572 
L 305.4351 492.467624 
L 307.846378 492.467714 
L 310.257657 492.467861 
L 312.668935 492.468071 
L 315.080214 492.468308 
L 317.491492 492.468527 
L 319.902771 492.468725 
L 322.31405 492.468927 
L 324.725328 492.469149 
L 327.136607 492.469372 
L 329.547885 492.469577 
L 331.959164 492.469768 
L 334.370442 492.469964 
L 336.781721 492.470171 
L 339.193 492.470376 
L 341.604278 492.47057 
L 344.015557 492.470758 
L 346.426835 492.470946 
L 348.838114 492.47113 
L 351.249392 492.471306 
L 353.660671 492.471475 
L 356.071949 492.471643 
L 358.483228 492.47181 
L 360.894507 492.471968 
L 363.305785 492.472108 
L 365.717064 492.472229 
L 368.128342 492.472331 
L 370.539621 492.472417 
L 372.950899 492.472489 
L 375.362178 492.472557 
L 377.773456 492.472632 
L 380.184735 492.472719 
L 382.596014 492.472813 
L 385.007292 492.472911 
L 387.418571 492.473012 
L 389.829849 492.473119 
L 392.241128 492.473232 
L 394.652406 492.473352 
" clip-path="url(#p8171c3f08b)" style="fill: none; stroke: #ff7f0e; stroke-width: 1.5; stroke-linecap: round"/>
   </g>
   <g id="line2d_14">
    <path d="M 155.935829 450.925934 
L 158.347107 492.376941 
L 160.758386 492.155426 
L 163.169665 492.019285 
L 165.580943 492.002829 
L 167.992222 492.066994 
L 170.4035 492.160903 
L 172.814779 492.247125 
L 175.226057 492.313437 
L 177.637336 492.360936 
L 180.048614 492.393808 
L 182.459893 492.416393 
L 184.871172 492.432278 
L 187.28245 492.44378 
L 189.693729 492.452008 
L 192.105007 492.457718 
L 194.516286 492.461481 
L 196.927564 492.463892 
L 199.338843 492.465452 
L 201.750122 492.466565 
L 204.1614 492.467473 
L 206.572679 492.468309 
L 208.983957 492.469103 
L 211.395236 492.469838 
L 213.806514 492.470497 
L 216.217793 492.471066 
L 218.629071 492.471556 
L 221.04035 492.47198 
L 223.451629 492.472318 
L 225.862907 492.472581 
L 228.274186 492.472812 
L 230.685464 492.473068 
L 233.096743 492.473358 
L 235.508021 492.473659 
L 237.9193 492.473945 
L 240.330579 492.474201 
L 242.741857 492.474422 
L 245.153136 492.474623 
L 247.564414 492.474827 
L 249.975693 492.475035 
L 252.386971 492.475255 
L 254.79825 492.475471 
L 257.209528 492.475664 
L 259.620807 492.475829 
L 262.032086 492.475973 
L 264.443364 492.4761 
L 266.854643 492.476216 
L 269.265921 492.476329 
L 271.6772 492.476445 
L 274.088478 492.476564 
L 276.499757 492.476691 
L 278.911035 492.476812 
L 281.322314 492.476919 
L 283.733593 492.477017 
L 286.144871 492.477111 
L 288.55615 492.477212 
L 290.967428 492.47732 
L 293.378707 492.477435 
L 295.789985 492.47756 
L 298.201264 492.477681 
L 300.612543 492.477792 
L 303.023821 492.47789 
L 305.4351 492.477978 
L 307.846378 492.478059 
L 310.257657 492.478139 
L 312.668935 492.478219 
L 315.080214 492.478301 
L 317.491492 492.478383 
L 319.902771 492.478465 
L 322.31405 492.478541 
L 324.725328 492.478612 
L 327.136607 492.478678 
L 329.547885 492.478741 
L 331.959164 492.478804 
L 334.370442 492.478866 
L 336.781721 492.47893 
L 339.193 492.478995 
L 341.604278 492.479058 
L 344.015557 492.479119 
L 346.426835 492.479175 
L 348.838114 492.479227 
L 351.249392 492.479275 
L 353.660671 492.479322 
L 356.071949 492.479367 
L 358.483228 492.479412 
L 360.894507 492.479456 
L 363.305785 492.479502 
L 365.717064 492.479548 
L 368.128342 492.479594 
L 370.539621 492.479639 
L 372.950899 492.479682 
L 375.362178 492.479723 
L 377.773456 492.479762 
L 380.184735 492.479799 
L 382.596014 492.479834 
L 385.007292 492.479869 
L 387.418571 492.479903 
L 389.829849 492.479935 
L 392.241128 492.479968 
L 394.652406 492.48 
" clip-path="url(#p8171c3f08b)" style="fill: none; stroke: #2ca02c; stroke-width: 1.5; stroke-linecap: round"/>
   </g>
   <g id="line2d_15"/>
   <g id="line2d_16"/>
   <g id="line2d_17"/>
   <g id="patch_3">
    <path d="M 144 512.64 
L 144 69.12 
" style="fill: none; stroke: #262626; stroke-width: 1.25; stroke-linejoin: miter; stroke-linecap: square"/>
   </g>
   <g id="patch_4">
    <path d="M 406.588235 512.64 
L 406.588235 69.12 
" style="fill: none; stroke: #262626; stroke-width: 1.25; stroke-linejoin: miter; stroke-linecap: square"/>
   </g>
   <g id="patch_5">
    <path d="M 144 512.64 
L 406.588235 512.64 
" style="fill: none; stroke: #262626; stroke-width: 1.25; stroke-linejoin: miter; stroke-linecap: square"/>
   </g>
   <g id="patch_6">
    <path d="M 144 69.12 
L 406.588235 69.12 
" style="fill: none; stroke: #262626; stroke-width: 1.25; stroke-linejoin: miter; stroke-linecap: square"/>
   </g>
   <g id="text_14">
    <!-- Skempi-Affinity -->
    <g style="fill: #262626" transform="translate(219.427555 63.12) scale(0.168 -0.168)">
     <defs>
      <path id="ArialMT-53" d="M 288 1472 
L 859 1522 
Q 900 1178 1048 958 
Q 1197 738 1509 602 
Q 1822 466 2213 466 
Q 2559 466 2825 569 
Q 3091 672 3220 851 
Q 3350 1031 3350 1244 
Q 3350 1459 3225 1620 
Q 3100 1781 2813 1891 
Q 2628 1963 1997 2114 
Q 1366 2266 1113 2400 
Q 784 2572 623 2826 
Q 463 3081 463 3397 
Q 463 3744 659 4045 
Q 856 4347 1234 4503 
Q 1613 4659 2075 4659 
Q 2584 4659 2973 4495 
Q 3363 4331 3572 4012 
Q 3781 3694 3797 3291 
L 3216 3247 
Q 3169 3681 2898 3903 
Q 2628 4125 2100 4125 
Q 1550 4125 1298 3923 
Q 1047 3722 1047 3438 
Q 1047 3191 1225 3031 
Q 1400 2872 2139 2705 
Q 2878 2538 3153 2413 
Q 3553 2228 3743 1945 
Q 3934 1663 3934 1294 
Q 3934 928 3725 604 
Q 3516 281 3123 101 
Q 2731 -78 2241 -78 
Q 1619 -78 1198 103 
Q 778 284 539 648 
Q 300 1013 288 1472 
z
" transform="scale(0.015625)"/>
      <path id="ArialMT-6b" d="M 425 0 
L 425 4581 
L 988 4581 
L 988 1969 
L 2319 3319 
L 3047 3319 
L 1778 2088 
L 3175 0 
L 2481 0 
L 1384 1697 
L 988 1316 
L 988 0 
L 425 0 
z
" transform="scale(0.015625)"/>
      <path id="ArialMT-65" d="M 2694 1069 
L 3275 997 
Q 3138 488 2766 206 
Q 2394 -75 1816 -75 
Q 1088 -75 661 373 
Q 234 822 234 1631 
Q 234 2469 665 2931 
Q 1097 3394 1784 3394 
Q 2450 3394 2872 2941 
Q 3294 2488 3294 1666 
Q 3294 1616 3291 1516 
L 816 1516 
Q 847 969 1125 678 
Q 1403 388 1819 388 
Q 2128 388 2347 550 
Q 2566 713 2694 1069 
z
M 847 1978 
L 2700 1978 
Q 2663 2397 2488 2606 
Q 2219 2931 1791 2931 
Q 1403 2931 1139 2672 
Q 875 2413 847 1978 
z
" transform="scale(0.015625)"/>
      <path id="ArialMT-6d" d="M 422 0 
L 422 3319 
L 925 3319 
L 925 2853 
Q 1081 3097 1340 3245 
Q 1600 3394 1931 3394 
Q 2300 3394 2536 3241 
Q 2772 3088 2869 2813 
Q 3263 3394 3894 3394 
Q 4388 3394 4653 3120 
Q 4919 2847 4919 2278 
L 4919 0 
L 4359 0 
L 4359 2091 
Q 4359 2428 4304 2576 
Q 4250 2725 4106 2815 
Q 3963 2906 3769 2906 
Q 3419 2906 3187 2673 
Q 2956 2441 2956 1928 
L 2956 0 
L 2394 0 
L 2394 2156 
Q 2394 2531 2256 2718 
Q 2119 2906 1806 2906 
Q 1569 2906 1367 2781 
Q 1166 2656 1075 2415 
Q 984 2175 984 1722 
L 984 0 
L 422 0 
z
" transform="scale(0.015625)"/>
      <path id="ArialMT-69" d="M 425 3934 
L 425 4581 
L 988 4581 
L 988 3934 
L 425 3934 
z
M 425 0 
L 425 3319 
L 988 3319 
L 988 0 
L 425 0 
z
" transform="scale(0.015625)"/>
      <path id="ArialMT-2d" d="M 203 1375 
L 203 1941 
L 1931 1941 
L 1931 1375 
L 203 1375 
z
" transform="scale(0.015625)"/>
      <path id="ArialMT-41" d="M -9 0 
L 1750 4581 
L 2403 4581 
L 4278 0 
L 3588 0 
L 3053 1388 
L 1138 1388 
L 634 0 
L -9 0 
z
M 1313 1881 
L 2866 1881 
L 2388 3150 
Q 2169 3728 2063 4100 
Q 1975 3659 1816 3225 
L 1313 1881 
z
" transform="scale(0.015625)"/>
      <path id="ArialMT-66" d="M 556 0 
L 556 2881 
L 59 2881 
L 59 3319 
L 556 3319 
L 556 3672 
Q 556 4006 616 4169 
Q 697 4388 901 4523 
Q 1106 4659 1475 4659 
Q 1713 4659 2000 4603 
L 1916 4113 
Q 1741 4144 1584 4144 
Q 1328 4144 1222 4034 
Q 1116 3925 1116 3625 
L 1116 3319 
L 1763 3319 
L 1763 2881 
L 1116 2881 
L 1116 0 
L 556 0 
z
" transform="scale(0.015625)"/>
      <path id="ArialMT-6e" d="M 422 0 
L 422 3319 
L 928 3319 
L 928 2847 
Q 1294 3394 1984 3394 
Q 2284 3394 2536 3286 
Q 2788 3178 2913 3003 
Q 3038 2828 3088 2588 
Q 3119 2431 3119 2041 
L 3119 0 
L 2556 0 
L 2556 2019 
Q 2556 2363 2490 2533 
Q 2425 2703 2258 2804 
Q 2091 2906 1866 2906 
Q 1506 2906 1245 2678 
Q 984 2450 984 1813 
L 984 0 
L 422 0 
z
" transform="scale(0.015625)"/>
      <path id="ArialMT-74" d="M 1650 503 
L 1731 6 
Q 1494 -44 1306 -44 
Q 1000 -44 831 53 
Q 663 150 594 308 
Q 525 466 525 972 
L 525 2881 
L 113 2881 
L 113 3319 
L 525 3319 
L 525 4141 
L 1084 4478 
L 1084 3319 
L 1650 3319 
L 1650 2881 
L 1084 2881 
L 1084 941 
Q 1084 700 1114 631 
Q 1144 563 1211 522 
Q 1278 481 1403 481 
Q 1497 481 1650 503 
z
" transform="scale(0.015625)"/>
      <path id="ArialMT-79" d="M 397 -1278 
L 334 -750 
Q 519 -800 656 -800 
Q 844 -800 956 -737 
Q 1069 -675 1141 -563 
Q 1194 -478 1313 -144 
Q 1328 -97 1363 -6 
L 103 3319 
L 709 3319 
L 1400 1397 
Q 1534 1031 1641 628 
Q 1738 1016 1872 1384 
L 2581 3319 
L 3144 3319 
L 1881 -56 
Q 1678 -603 1566 -809 
Q 1416 -1088 1222 -1217 
Q 1028 -1347 759 -1347 
Q 597 -1347 397 -1278 
z
" transform="scale(0.015625)"/>
     </defs>
     <use xlink:href="#ArialMT-53"/>
     <use xlink:href="#ArialMT-6b" x="66.699219"/>
     <use xlink:href="#ArialMT-65" x="116.699219"/>
     <use xlink:href="#ArialMT-6d" x="172.314453"/>
     <use xlink:href="#ArialMT-70" x="255.615234"/>
     <use xlink:href="#ArialMT-69" x="311.230469"/>
     <use xlink:href="#ArialMT-2d" x="333.447266"/>
     <use xlink:href="#ArialMT-41" x="366.748047"/>
     <use xlink:href="#ArialMT-66" x="433.447266"/>
     <use xlink:href="#ArialMT-66" x="459.480469"/>
     <use xlink:href="#ArialMT-69" x="487.263672"/>
     <use xlink:href="#ArialMT-6e" x="509.480469"/>
     <use xlink:href="#ArialMT-69" x="565.095703"/>
     <use xlink:href="#ArialMT-74" x="587.3125"/>
     <use xlink:href="#ArialMT-79" x="615.095703"/>
    </g>
   </g>
   <g id="legend_1">
    <g id="text_15">
     <!-- Strategy -->
     <g style="fill: #262626" transform="translate(263.122142 91.911563) scale(0.14 -0.14)">
      <defs>
       <path id="ArialMT-72" d="M 416 0 
L 416 3319 
L 922 3319 
L 922 2816 
Q 1116 3169 1280 3281 
Q 1444 3394 1641 3394 
Q 1925 3394 2219 3213 
L 2025 2691 
Q 1819 2813 1613 2813 
Q 1428 2813 1281 2702 
Q 1134 2591 1072 2394 
Q 978 2094 978 1738 
L 978 0 
L 416 0 
z
" transform="scale(0.015625)"/>
       <path id="ArialMT-61" d="M 2588 409 
Q 2275 144 1986 34 
Q 1697 -75 1366 -75 
Q 819 -75 525 192 
Q 231 459 231 875 
Q 231 1119 342 1320 
Q 453 1522 633 1644 
Q 813 1766 1038 1828 
Q 1203 1872 1538 1913 
Q 2219 1994 2541 2106 
Q 2544 2222 2544 2253 
Q 2544 2597 2384 2738 
Q 2169 2928 1744 2928 
Q 1347 2928 1158 2789 
Q 969 2650 878 2297 
L 328 2372 
Q 403 2725 575 2942 
Q 747 3159 1072 3276 
Q 1397 3394 1825 3394 
Q 2250 3394 2515 3294 
Q 2781 3194 2906 3042 
Q 3031 2891 3081 2659 
Q 3109 2516 3109 2141 
L 3109 1391 
Q 3109 606 3145 398 
Q 3181 191 3288 0 
L 2700 0 
Q 2613 175 2588 409 
z
M 2541 1666 
Q 2234 1541 1622 1453 
Q 1275 1403 1131 1340 
Q 988 1278 909 1158 
Q 831 1038 831 891 
Q 831 666 1001 516 
Q 1172 366 1500 366 
Q 1825 366 2078 508 
Q 2331 650 2450 897 
Q 2541 1088 2541 1459 
L 2541 1666 
z
" transform="scale(0.015625)"/>
       <path id="ArialMT-67" d="M 319 -275 
L 866 -356 
Q 900 -609 1056 -725 
Q 1266 -881 1628 -881 
Q 2019 -881 2231 -725 
Q 2444 -569 2519 -288 
Q 2563 -116 2559 434 
Q 2191 0 1641 0 
Q 956 0 581 494 
Q 206 988 206 1678 
Q 206 2153 378 2554 
Q 550 2956 876 3175 
Q 1203 3394 1644 3394 
Q 2231 3394 2613 2919 
L 2613 3319 
L 3131 3319 
L 3131 450 
Q 3131 -325 2973 -648 
Q 2816 -972 2473 -1159 
Q 2131 -1347 1631 -1347 
Q 1038 -1347 672 -1080 
Q 306 -813 319 -275 
z
M 784 1719 
Q 784 1066 1043 766 
Q 1303 466 1694 466 
Q 2081 466 2343 764 
Q 2606 1063 2606 1700 
Q 2606 2309 2336 2618 
Q 2066 2928 1684 2928 
Q 1309 2928 1046 2623 
Q 784 2319 784 1719 
z
" transform="scale(0.015625)"/>
      </defs>
      <use xlink:href="#ArialMT-53"/>
      <use xlink:href="#ArialMT-74" x="66.699219"/>
      <use xlink:href="#ArialMT-72" x="94.482422"/>
      <use xlink:href="#ArialMT-61" x="127.783203"/>
      <use xlink:href="#ArialMT-74" x="183.398438"/>
      <use xlink:href="#ArialMT-65" x="211.181641"/>
      <use xlink:href="#ArialMT-67" x="266.796875"/>
      <use xlink:href="#ArialMT-79" x="322.412109"/>
     </g>
    </g>
    <g id="line2d_18">
     <path d="M 184.390735 106.979063 
L 198.390735 106.979063 
L 212.390735 106.979063 
" style="fill: none; stroke: #1f77b4; stroke-width: 1.5; stroke-linecap: round"/>
    </g>
    <g id="text_16">
     <!-- NLP strategies -->
     <g style="fill: #262626" transform="translate(223.590735 111.879063) scale(0.14 -0.14)">
      <defs>
       <path id="ArialMT-4e" d="M 488 0 
L 488 4581 
L 1109 4581 
L 3516 984 
L 3516 4581 
L 4097 4581 
L 4097 0 
L 3475 0 
L 1069 3600 
L 1069 0 
L 488 0 
z
" transform="scale(0.015625)"/>
       <path id="ArialMT-50" d="M 494 0 
L 494 4581 
L 2222 4581 
Q 2678 4581 2919 4538 
Q 3256 4481 3484 4323 
Q 3713 4166 3852 3881 
Q 3991 3597 3991 3256 
Q 3991 2672 3619 2267 
Q 3247 1863 2275 1863 
L 1100 1863 
L 1100 0 
L 494 0 
z
M 1100 2403 
L 2284 2403 
Q 2872 2403 3119 2622 
Q 3366 2841 3366 3238 
Q 3366 3525 3220 3729 
Q 3075 3934 2838 4000 
Q 2684 4041 2272 4041 
L 1100 4041 
L 1100 2403 
z
" transform="scale(0.015625)"/>
       <path id="ArialMT-20" transform="scale(0.015625)"/>
      </defs>
      <use xlink:href="#ArialMT-4e"/>
      <use xlink:href="#ArialMT-4c" x="72.216797"/>
      <use xlink:href="#ArialMT-50" x="127.832031"/>
      <use xlink:href="#ArialMT-20" x="192.78125"/>
      <use xlink:href="#ArialMT-73" x="220.564453"/>
      <use xlink:href="#ArialMT-74" x="270.564453"/>
      <use xlink:href="#ArialMT-72" x="298.347656"/>
      <use xlink:href="#ArialMT-61" x="331.648438"/>
      <use xlink:href="#ArialMT-74" x="387.263672"/>
      <use xlink:href="#ArialMT-65" x="415.046875"/>
      <use xlink:href="#ArialMT-67" x="470.662109"/>
      <use xlink:href="#ArialMT-69" x="526.277344"/>
      <use xlink:href="#ArialMT-65" x="548.494141"/>
      <use xlink:href="#ArialMT-73" x="604.109375"/>
     </g>
    </g>
    <g id="line2d_19">
     <path d="M 184.390735 126.946562 
L 198.390735 126.946562 
L 212.390735 126.946562 
" style="fill: none; stroke: #ff7f0e; stroke-width: 1.5; stroke-linecap: round"/>
    </g>
    <g id="text_17">
     <!-- Physicochemical properties -->
     <g style="fill: #262626" transform="translate(223.590735 131.846563) scale(0.14 -0.14)">
      <defs>
       <path id="ArialMT-6c" d="M 409 0 
L 409 4581 
L 972 4581 
L 972 0 
L 409 0 
z
" transform="scale(0.015625)"/>
      </defs>
      <use xlink:href="#ArialMT-50"/>
      <use xlink:href="#ArialMT-68" x="66.699219"/>
      <use xlink:href="#ArialMT-79" x="122.314453"/>
      <use xlink:href="#ArialMT-73" x="172.314453"/>
      <use xlink:href="#ArialMT-69" x="222.314453"/>
      <use xlink:href="#ArialMT-63" x="244.53125"/>
      <use xlink:href="#ArialMT-6f" x="294.53125"/>
      <use xlink:href="#ArialMT-63" x="350.146484"/>
      <use xlink:href="#ArialMT-68" x="400.146484"/>
      <use xlink:href="#ArialMT-65" x="455.761719"/>
      <use xlink:href="#ArialMT-6d" x="511.376953"/>
      <use xlink:href="#ArialMT-69" x="594.677734"/>
      <use xlink:href="#ArialMT-63" x="616.894531"/>
      <use xlink:href="#ArialMT-61" x="666.894531"/>
      <use xlink:href="#ArialMT-6c" x="722.509766"/>
      <use xlink:href="#ArialMT-20" x="744.726562"/>
      <use xlink:href="#ArialMT-70" x="772.509766"/>
      <use xlink:href="#ArialMT-72" x="828.125"/>
      <use xlink:href="#ArialMT-6f" x="861.425781"/>
      <use xlink:href="#ArialMT-70" x="917.041016"/>
      <use xlink:href="#ArialMT-65" x="972.65625"/>
      <use xlink:href="#ArialMT-72" x="1028.271484"/>
      <use xlink:href="#ArialMT-74" x="1061.572266"/>
      <use xlink:href="#ArialMT-69" x="1089.355469"/>
      <use xlink:href="#ArialMT-65" x="1111.572266"/>
      <use xlink:href="#ArialMT-73" x="1167.1875"/>
     </g>
    </g>
    <g id="line2d_20">
     <path d="M 184.390735 146.914063 
L 198.390735 146.914063 
L 212.390735 146.914063 
" style="fill: none; stroke: #2ca02c; stroke-width: 1.5; stroke-linecap: round"/>
    </g>
    <g id="text_18">
     <!-- FFT-applications -->
     <g style="fill: #262626" transform="translate(223.590735 151.814063) scale(0.14 -0.14)">
      <defs>
       <path id="ArialMT-46" d="M 525 0 
L 525 4581 
L 3616 4581 
L 3616 4041 
L 1131 4041 
L 1131 2622 
L 3281 2622 
L 3281 2081 
L 1131 2081 
L 1131 0 
L 525 0 
z
" transform="scale(0.015625)"/>
       <path id="ArialMT-54" d="M 1659 0 
L 1659 4041 
L 150 4041 
L 150 4581 
L 3781 4581 
L 3781 4041 
L 2266 4041 
L 2266 0 
L 1659 0 
z
" transform="scale(0.015625)"/>
      </defs>
      <use xlink:href="#ArialMT-46"/>
      <use xlink:href="#ArialMT-46" x="61.083984"/>
      <use xlink:href="#ArialMT-54" x="122.167969"/>
      <use xlink:href="#ArialMT-2d" x="177.751953"/>
      <use xlink:href="#ArialMT-61" x="211.052734"/>
      <use xlink:href="#ArialMT-70" x="266.667969"/>
      <use xlink:href="#ArialMT-70" x="322.283203"/>
      <use xlink:href="#ArialMT-6c" x="377.898438"/>
      <use xlink:href="#ArialMT-69" x="400.115234"/>
      <use xlink:href="#ArialMT-63" x="422.332031"/>
      <use xlink:href="#ArialMT-61" x="472.332031"/>
      <use xlink:href="#ArialMT-74" x="527.947266"/>
      <use xlink:href="#ArialMT-69" x="555.730469"/>
      <use xlink:href="#ArialMT-6f" x="577.947266"/>
      <use xlink:href="#ArialMT-6e" x="633.5625"/>
      <use xlink:href="#ArialMT-73" x="689.177734"/>
     </g>
    </g>
   </g>
  </g>
  <g id="axes_2">
   <g id="patch_7">
    <path d="M 459.105882 512.64 
L 721.694118 512.64 
L 721.694118 69.12 
L 459.105882 69.12 
z
" style="fill: #ffffff"/>
   </g>
   <g id="matplotlib.axis_3">
    <g id="xtick_7">
     <g id="line2d_21"/>
     <g id="text_19">
      <!-- 0 -->
      <g style="fill: #262626" transform="translate(464.737776 526.160938) scale(0.14 -0.14)">
       <use xlink:href="#ArialMT-30"/>
      </g>
     </g>
    </g>
    <g id="xtick_8">
     <g id="line2d_22"/>
     <g id="text_20">
      <!-- 20 -->
      <g style="fill: #262626" transform="translate(509.070691 526.160938) scale(0.14 -0.14)">
       <use xlink:href="#ArialMT-32"/>
       <use xlink:href="#ArialMT-30" x="55.615234"/>
      </g>
     </g>
    </g>
    <g id="xtick_9">
     <g id="line2d_23"/>
     <g id="text_21">
      <!-- 40 -->
      <g style="fill: #262626" transform="translate(557.296263 526.160938) scale(0.14 -0.14)">
       <use xlink:href="#ArialMT-34"/>
       <use xlink:href="#ArialMT-30" x="55.615234"/>
      </g>
     </g>
    </g>
    <g id="xtick_10">
     <g id="line2d_24"/>
     <g id="text_22">
      <!-- 60 -->
      <g style="fill: #262626" transform="translate(605.521834 526.160938) scale(0.14 -0.14)">
       <use xlink:href="#ArialMT-36"/>
       <use xlink:href="#ArialMT-30" x="55.615234"/>
      </g>
     </g>
    </g>
    <g id="xtick_11">
     <g id="line2d_25"/>
     <g id="text_23">
      <!-- 80 -->
      <g style="fill: #262626" transform="translate(653.747405 526.160938) scale(0.14 -0.14)">
       <use xlink:href="#ArialMT-38"/>
       <use xlink:href="#ArialMT-30" x="55.615234"/>
      </g>
     </g>
    </g>
    <g id="xtick_12">
     <g id="line2d_26"/>
     <g id="text_24">
      <!-- 100 -->
      <g style="fill: #262626" transform="translate(698.08032 526.160938) scale(0.14 -0.14)">
       <use xlink:href="#ArialMT-31"/>
       <use xlink:href="#ArialMT-30" x="55.615234"/>
       <use xlink:href="#ArialMT-30" x="111.230469"/>
      </g>
     </g>
    </g>
    <g id="text_25">
     <!-- Epochs -->
     <g style="fill: #262626" transform="translate(567.052813 542.964375) scale(0.14 -0.14)">
      <use xlink:href="#ArialMT-45"/>
      <use xlink:href="#ArialMT-70" x="66.699219"/>
      <use xlink:href="#ArialMT-6f" x="122.314453"/>
      <use xlink:href="#ArialMT-63" x="177.929688"/>
      <use xlink:href="#ArialMT-68" x="227.929688"/>
      <use xlink:href="#ArialMT-73" x="283.544922"/>
     </g>
    </g>
   </g>
   <g id="matplotlib.axis_4">
    <g id="ytick_6">
     <g id="line2d_27"/>
     <g id="text_26">
      <!-- 0 -->
      <g style="fill: #262626" transform="translate(447.82057 497.493068) scale(0.14 -0.14)">
       <use xlink:href="#ArialMT-30"/>
      </g>
     </g>
    </g>
    <g id="ytick_7">
     <g id="line2d_28"/>
     <g id="text_27">
      <!-- 50 -->
      <g style="fill: #262626" transform="translate(440.035257 420.484168) scale(0.14 -0.14)">
       <defs>
        <path id="ArialMT-35" d="M 266 1200 
L 856 1250 
Q 922 819 1161 601 
Q 1400 384 1738 384 
Q 2144 384 2425 690 
Q 2706 997 2706 1503 
Q 2706 1984 2436 2262 
Q 2166 2541 1728 2541 
Q 1456 2541 1237 2417 
Q 1019 2294 894 2097 
L 366 2166 
L 809 4519 
L 3088 4519 
L 3088 3981 
L 1259 3981 
L 1013 2750 
Q 1425 3038 1878 3038 
Q 2478 3038 2890 2622 
Q 3303 2206 3303 1553 
Q 3303 931 2941 478 
Q 2500 -78 1738 -78 
Q 1113 -78 717 272 
Q 322 622 266 1200 
z
" transform="scale(0.015625)"/>
       </defs>
       <use xlink:href="#ArialMT-35"/>
       <use xlink:href="#ArialMT-30" x="55.615234"/>
      </g>
     </g>
    </g>
    <g id="ytick_8">
     <g id="line2d_29"/>
     <g id="text_28">
      <!-- 100 -->
      <g style="fill: #262626" transform="translate(432.249945 343.475268) scale(0.14 -0.14)">
       <use xlink:href="#ArialMT-31"/>
       <use xlink:href="#ArialMT-30" x="55.615234"/>
       <use xlink:href="#ArialMT-30" x="111.230469"/>
      </g>
     </g>
    </g>
    <g id="ytick_9">
     <g id="line2d_30"/>
     <g id="text_29">
      <!-- 150 -->
      <g style="fill: #262626" transform="translate(432.249945 266.466369) scale(0.14 -0.14)">
       <use xlink:href="#ArialMT-31"/>
       <use xlink:href="#ArialMT-35" x="55.615234"/>
       <use xlink:href="#ArialMT-30" x="111.230469"/>
      </g>
     </g>
    </g>
    <g id="ytick_10">
     <g id="line2d_31"/>
     <g id="text_30">
      <!-- 200 -->
      <g style="fill: #262626" transform="translate(432.249945 189.457469) scale(0.14 -0.14)">
       <use xlink:href="#ArialMT-32"/>
       <use xlink:href="#ArialMT-30" x="55.615234"/>
       <use xlink:href="#ArialMT-30" x="111.230469"/>
      </g>
     </g>
    </g>
    <g id="ytick_11">
     <g id="line2d_32"/>
     <g id="text_31">
      <!-- 250 -->
      <g style="fill: #262626" transform="translate(432.249945 112.448569) scale(0.14 -0.14)">
       <use xlink:href="#ArialMT-32"/>
       <use xlink:href="#ArialMT-35" x="55.615234"/>
       <use xlink:href="#ArialMT-30" x="111.230469"/>
      </g>
     </g>
    </g>
    <g id="text_32">
     <!-- Loss(BCE) -->
     <g style="fill: #262626" transform="translate(425.303382 324.720625) rotate(-90) scale(0.14 -0.14)">
      <use xlink:href="#ArialMT-4c"/>
      <use xlink:href="#ArialMT-6f" x="55.615234"/>
      <use xlink:href="#ArialMT-73" x="111.230469"/>
      <use xlink:href="#ArialMT-73" x="161.230469"/>
      <use xlink:href="#ArialMT-28" x="211.230469"/>
      <use xlink:href="#ArialMT-42" x="244.53125"/>
      <use xlink:href="#ArialMT-43" x="311.230469"/>
      <use xlink:href="#ArialMT-45" x="383.447266"/>
      <use xlink:href="#ArialMT-29" x="450.146484"/>
     </g>
    </g>
   </g>
   <g id="PolyCollection_4"/>
   <g id="PolyCollection_5"/>
   <g id="PolyCollection_6"/>
   <g id="line2d_33">
    <path d="M 471.041711 479.541141 
L 473.45299 488.625792 
L 475.864268 488.928712 
L 478.275547 489.987109 
L 480.686825 491.381827 
L 483.098104 491.981353 
L 485.509383 491.984603 
L 487.920661 491.803262 
L 490.33194 491.681793 
L 492.743218 491.684803 
L 495.154497 491.770657 
L 497.565775 491.875904 
L 499.977054 491.957777 
L 502.388333 492.00244 
L 504.799611 492.018812 
L 507.21089 492.027014 
L 509.622168 492.04205 
L 512.033447 492.071082 
L 514.444725 492.110805 
L 516.856004 492.155422 
L 519.267282 492.198022 
L 521.678561 492.235389 
L 524.08984 492.266125 
L 526.501118 492.291401 
L 528.912397 492.312325 
L 531.323675 492.330335 
L 533.734954 492.346611 
L 536.146232 492.361304 
L 538.557511 492.374123 
L 540.968789 492.384715 
L 543.380068 492.392997 
L 545.791347 492.399196 
L 548.202625 492.403913 
L 550.613904 492.40784 
L 553.025182 492.411498 
L 555.436461 492.415411 
L 557.847739 492.419603 
L 560.259018 492.423839 
L 562.670297 492.427848 
L 565.081575 492.43137 
L 567.492854 492.434275 
L 569.904132 492.436606 
L 572.315411 492.438522 
L 574.726689 492.44021 
L 577.137968 492.441808 
L 579.549246 492.443371 
L 581.960525 492.444876 
L 584.371804 492.446257 
L 586.783082 492.447462 
L 589.194361 492.448486 
L 591.605639 492.449389 
L 594.016918 492.45026 
L 596.428196 492.4512 
L 598.839475 492.452247 
L 601.250754 492.453505 
L 603.662032 492.454945 
L 606.073311 492.456506 
L 608.484589 492.458113 
L 610.895868 492.459707 
L 613.307146 492.461247 
L 615.718425 492.462716 
L 618.129703 492.464111 
L 620.540982 492.465432 
L 622.952261 492.466659 
L 625.363539 492.467784 
L 627.774818 492.468802 
L 630.186096 492.469703 
L 632.597375 492.470499 
L 635.008653 492.471208 
L 637.419932 492.471855 
L 639.831211 492.472464 
L 642.242489 492.47305 
L 644.653768 492.473615 
L 647.065046 492.474153 
L 649.476325 492.474654 
L 651.887603 492.475108 
L 654.298882 492.475513 
L 656.71016 492.475869 
L 659.121439 492.476182 
L 661.532718 492.476457 
L 663.943996 492.476697 
L 666.355275 492.476908 
L 668.766553 492.477093 
L 671.177832 492.477259 
L 673.58911 492.477413 
L 676.000389 492.477566 
L 678.411667 492.477728 
L 680.822946 492.477905 
L 683.234225 492.478097 
L 685.645503 492.478302 
L 688.056782 492.478511 
L 690.46806 492.478719 
L 692.879339 492.478924 
L 695.290617 492.479118 
L 697.701896 492.479301 
L 700.113175 492.47947 
L 702.524453 492.479624 
L 704.935732 492.479763 
L 707.34701 492.479887 
L 709.758289 492.48 
" clip-path="url(#p69f50e8f65)" style="fill: none; stroke: #1f77b4; stroke-width: 1.5; stroke-linecap: round"/>
   </g>
   <g id="line2d_34">
    <path d="M 471.041711 89.28 
L 473.45299 451.786278 
L 475.864268 476.820431 
L 478.275547 487.278957 
L 480.686825 490.606655 
L 483.098104 491.599424 
L 485.509383 491.927356 
L 487.920661 492.023847 
L 490.33194 492.000372 
L 492.743218 491.935181 
L 495.154497 491.899725 
L 497.565775 491.924645 
L 499.977054 491.992268 
L 502.388333 492.065934 
L 504.799611 492.11854 
L 507.21089 492.142539 
L 509.622168 492.146658 
L 512.033447 492.143752 
L 514.444725 492.143247 
L 516.856004 492.147217 
L 519.267282 492.152759 
L 521.678561 492.156073 
L 524.08984 492.155907 
L 526.501118 492.15445 
L 528.912397 492.156087 
L 531.323675 492.164717 
L 533.734954 492.181626 
L 536.146232 492.204827 
L 538.557511 492.230252 
L 540.968789 492.253698 
L 543.380068 492.272439 
L 545.791347 492.285929 
L 548.202625 492.295348 
L 550.613904 492.302522 
L 553.025182 492.308938 
L 555.436461 492.315222 
L 557.847739 492.321175 
L 560.259018 492.326296 
L 562.670297 492.33024 
L 565.081575 492.333126 
L 567.492854 492.335475 
L 569.904132 492.337891 
L 572.315411 492.340755 
L 574.726689 492.344097 
L 577.137968 492.347688 
L 579.549246 492.351244 
L 581.960525 492.354611 
L 584.371804 492.357816 
L 586.783082 492.360983 
L 589.194361 492.364206 
L 591.605639 492.367471 
L 594.016918 492.370664 
L 596.428196 492.373669 
L 598.839475 492.376454 
L 601.250754 492.379102 
L 603.662032 492.38176 
L 606.073311 492.384546 
L 608.484589 492.387482 
L 610.895868 492.390485 
L 613.307146 492.393417 
L 615.718425 492.396165 
L 618.129703 492.398682 
L 620.540982 492.400988 
L 622.952261 492.403129 
L 625.363539 492.405136 
L 627.774818 492.407013 
L 630.186096 492.408755 
L 632.597375 492.410375 
L 635.008653 492.411923 
L 637.419932 492.413475 
L 639.831211 492.415098 
L 642.242489 492.416824 
L 644.653768 492.418636 
L 647.065046 492.420487 
L 649.476325 492.422325 
L 651.887603 492.424112 
L 654.298882 492.425834 
L 656.71016 492.427492 
L 659.121439 492.429088 
L 661.532718 492.430626 
L 663.943996 492.432109 
L 666.355275 492.433547 
L 668.766553 492.434955 
L 671.177832 492.43635 
L 673.58911 492.437737 
L 676.000389 492.439111 
L 678.411667 492.440457 
L 680.822946 492.441757 
L 683.234225 492.442998 
L 685.645503 492.444177 
L 688.056782 492.445296 
L 690.46806 492.446358 
L 692.879339 492.44737 
L 695.290617 492.448343 
L 697.701896 492.44929 
L 700.113175 492.450227 
L 702.524453 492.451167 
L 704.935732 492.452117 
L 707.34701 492.453074 
L 709.758289 492.454029 
" clip-path="url(#p69f50e8f65)" style="fill: none; stroke: #ff7f0e; stroke-width: 1.5; stroke-linecap: round"/>
   </g>
   <g id="line2d_35">
    <path d="M 471.041711 479.406641 
L 473.45299 491.500429 
L 475.864268 491.803783 
L 478.275547 492.02824 
L 480.686825 492.188844 
L 483.098104 492.224563 
L 485.509383 492.077128 
L 487.920661 491.78593 
L 490.33194 491.500476 
L 492.743218 491.393567 
L 495.154497 491.488997 
L 497.565775 491.673613 
L 499.977054 491.851199 
L 502.388333 491.981938 
L 504.799611 492.060393 
L 507.21089 492.106336 
L 509.622168 492.134922 
L 512.033447 492.155484 
L 514.444725 492.173085 
L 516.856004 492.191262 
L 519.267282 492.211352 
L 521.678561 492.232367 
L 524.08984 492.252926 
L 526.501118 492.273151 
L 528.912397 492.292135 
L 531.323675 492.308677 
L 533.734954 492.322127 
L 536.146232 492.332678 
L 538.557511 492.34087 
L 540.968789 492.347373 
L 543.380068 492.352708 
L 545.791347 492.35707 
L 548.202625 492.360447 
L 550.613904 492.362918 
L 553.025182 492.364679 
L 555.436461 492.365966 
L 557.847739 492.367227 
L 560.259018 492.368963 
L 562.670297 492.371558 
L 565.081575 492.375087 
L 567.492854 492.379265 
L 569.904132 492.383771 
L 572.315411 492.38817 
L 574.726689 492.392189 
L 577.137968 492.395696 
L 579.549246 492.398688 
L 581.960525 492.401223 
L 584.371804 492.403393 
L 586.783082 492.405263 
L 589.194361 492.406919 
L 591.605639 492.40847 
L 594.016918 492.41002 
L 596.428196 492.411643 
L 598.839475 492.413379 
L 601.250754 492.415234 
L 603.662032 492.417172 
L 606.073311 492.419137 
L 608.484589 492.421067 
L 610.895868 492.422911 
L 613.307146 492.424638 
L 615.718425 492.42624 
L 618.129703 492.427708 
L 620.540982 492.429057 
L 622.952261 492.430308 
L 625.363539 492.431473 
L 627.774818 492.432598 
L 630.186096 492.433731 
L 632.597375 492.434887 
L 635.008653 492.436075 
L 637.419932 492.437315 
L 639.831211 492.438617 
L 642.242489 492.439961 
L 644.653768 492.44132 
L 647.065046 492.442668 
L 649.476325 492.44398 
L 651.887603 492.44524 
L 654.298882 492.446438 
L 656.71016 492.447567 
L 659.121439 492.448628 
L 661.532718 492.449628 
L 663.943996 492.450569 
L 666.355275 492.45146 
L 668.766553 492.452309 
L 671.177832 492.453127 
L 673.58911 492.453927 
L 676.000389 492.454717 
L 678.411667 492.455503 
L 680.822946 492.45629 
L 683.234225 492.457076 
L 685.645503 492.457851 
L 688.056782 492.458616 
L 690.46806 492.459363 
L 692.879339 492.460262 
L 695.290617 492.46109 
L 697.701896 492.461821 
L 700.113175 492.462464 
L 702.524453 492.463059 
L 704.935732 492.463656 
L 707.34701 492.464314 
L 709.758289 492.464952 
" clip-path="url(#p69f50e8f65)" style="fill: none; stroke: #2ca02c; stroke-width: 1.5; stroke-linecap: round"/>
   </g>
   <g id="line2d_36"/>
   <g id="line2d_37"/>
   <g id="line2d_38"/>
   <g id="patch_8">
    <path d="M 459.105882 512.64 
L 459.105882 69.12 
" style="fill: none; stroke: #262626; stroke-width: 1.25; stroke-linejoin: miter; stroke-linecap: square"/>
   </g>
   <g id="patch_9">
    <path d="M 721.694118 512.64 
L 721.694118 69.12 
" style="fill: none; stroke: #262626; stroke-width: 1.25; stroke-linejoin: miter; stroke-linecap: square"/>
   </g>
   <g id="patch_10">
    <path d="M 459.105882 512.64 
L 721.694118 512.64 
" style="fill: none; stroke: #262626; stroke-width: 1.25; stroke-linejoin: miter; stroke-linecap: square"/>
   </g>
   <g id="patch_11">
    <path d="M 459.105882 69.12 
L 721.694118 69.12 
" style="fill: none; stroke: #262626; stroke-width: 1.25; stroke-linejoin: miter; stroke-linecap: square"/>
   </g>
   <g id="text_33">
    <!-- Proximate-Kd -->
    <g style="fill: #262626" transform="translate(539.518313 63.12) scale(0.168 -0.168)">
     <defs>
      <path id="ArialMT-78" d="M 47 0 
L 1259 1725 
L 138 3319 
L 841 3319 
L 1350 2541 
Q 1494 2319 1581 2169 
Q 1719 2375 1834 2534 
L 2394 3319 
L 3066 3319 
L 1919 1756 
L 3153 0 
L 2463 0 
L 1781 1031 
L 1600 1309 
L 728 0 
L 47 0 
z
" transform="scale(0.015625)"/>
      <path id="ArialMT-4b" d="M 469 0 
L 469 4581 
L 1075 4581 
L 1075 2309 
L 3350 4581 
L 4172 4581 
L 2250 2725 
L 4256 0 
L 3456 0 
L 1825 2319 
L 1075 1588 
L 1075 0 
L 469 0 
z
" transform="scale(0.015625)"/>
      <path id="ArialMT-64" d="M 2575 0 
L 2575 419 
Q 2259 -75 1647 -75 
Q 1250 -75 917 144 
Q 584 363 401 755 
Q 219 1147 219 1656 
Q 219 2153 384 2558 
Q 550 2963 881 3178 
Q 1213 3394 1622 3394 
Q 1922 3394 2156 3267 
Q 2391 3141 2538 2938 
L 2538 4581 
L 3097 4581 
L 3097 0 
L 2575 0 
z
M 797 1656 
Q 797 1019 1065 703 
Q 1334 388 1700 388 
Q 2069 388 2326 689 
Q 2584 991 2584 1609 
Q 2584 2291 2321 2609 
Q 2059 2928 1675 2928 
Q 1300 2928 1048 2622 
Q 797 2316 797 1656 
z
" transform="scale(0.015625)"/>
     </defs>
     <use xlink:href="#ArialMT-50"/>
     <use xlink:href="#ArialMT-72" x="66.699219"/>
     <use xlink:href="#ArialMT-6f" x="100"/>
     <use xlink:href="#ArialMT-78" x="155.615234"/>
     <use xlink:href="#ArialMT-69" x="205.615234"/>
     <use xlink:href="#ArialMT-6d" x="227.832031"/>
     <use xlink:href="#ArialMT-61" x="311.132812"/>
     <use xlink:href="#ArialMT-74" x="366.748047"/>
     <use xlink:href="#ArialMT-65" x="394.53125"/>
     <use xlink:href="#ArialMT-2d" x="450.146484"/>
     <use xlink:href="#ArialMT-4b" x="483.447266"/>
     <use xlink:href="#ArialMT-64" x="550.146484"/>
    </g>
   </g>
   <g id="legend_2">
    <g id="text_34">
     <!-- Strategy -->
     <g style="fill: #262626" transform="translate(578.228024 91.911563) scale(0.14 -0.14)">
      <use xlink:href="#ArialMT-53"/>
      <use xlink:href="#ArialMT-74" x="66.699219"/>
      <use xlink:href="#ArialMT-72" x="94.482422"/>
      <use xlink:href="#ArialMT-61" x="127.783203"/>
      <use xlink:href="#ArialMT-74" x="183.398438"/>
      <use xlink:href="#ArialMT-65" x="211.181641"/>
      <use xlink:href="#ArialMT-67" x="266.796875"/>
      <use xlink:href="#ArialMT-79" x="322.412109"/>
     </g>
    </g>
    <g id="line2d_39">
     <path d="M 499.496618 106.979063 
L 513.496618 106.979063 
L 527.496618 106.979063 
" style="fill: none; stroke: #1f77b4; stroke-width: 1.5; stroke-linecap: round"/>
    </g>
    <g id="text_35">
     <!-- NLP strategies -->
     <g style="fill: #262626" transform="translate(538.696618 111.879063) scale(0.14 -0.14)">
      <use xlink:href="#ArialMT-4e"/>
      <use xlink:href="#ArialMT-4c" x="72.216797"/>
      <use xlink:href="#ArialMT-50" x="127.832031"/>
      <use xlink:href="#ArialMT-20" x="192.78125"/>
      <use xlink:href="#ArialMT-73" x="220.564453"/>
      <use xlink:href="#ArialMT-74" x="270.564453"/>
      <use xlink:href="#ArialMT-72" x="298.347656"/>
      <use xlink:href="#ArialMT-61" x="331.648438"/>
      <use xlink:href="#ArialMT-74" x="387.263672"/>
      <use xlink:href="#ArialMT-65" x="415.046875"/>
      <use xlink:href="#ArialMT-67" x="470.662109"/>
      <use xlink:href="#ArialMT-69" x="526.277344"/>
      <use xlink:href="#ArialMT-65" x="548.494141"/>
      <use xlink:href="#ArialMT-73" x="604.109375"/>
     </g>
    </g>
    <g id="line2d_40">
     <path d="M 499.496618 126.946562 
L 513.496618 126.946562 
L 527.496618 126.946562 
" style="fill: none; stroke: #ff7f0e; stroke-width: 1.5; stroke-linecap: round"/>
    </g>
    <g id="text_36">
     <!-- Physicochemical properties -->
     <g style="fill: #262626" transform="translate(538.696618 131.846563) scale(0.14 -0.14)">
      <use xlink:href="#ArialMT-50"/>
      <use xlink:href="#ArialMT-68" x="66.699219"/>
      <use xlink:href="#ArialMT-79" x="122.314453"/>
      <use xlink:href="#ArialMT-73" x="172.314453"/>
      <use xlink:href="#ArialMT-69" x="222.314453"/>
      <use xlink:href="#ArialMT-63" x="244.53125"/>
      <use xlink:href="#ArialMT-6f" x="294.53125"/>
      <use xlink:href="#ArialMT-63" x="350.146484"/>
      <use xlink:href="#ArialMT-68" x="400.146484"/>
      <use xlink:href="#ArialMT-65" x="455.761719"/>
      <use xlink:href="#ArialMT-6d" x="511.376953"/>
      <use xlink:href="#ArialMT-69" x="594.677734"/>
      <use xlink:href="#ArialMT-63" x="616.894531"/>
      <use xlink:href="#ArialMT-61" x="666.894531"/>
      <use xlink:href="#ArialMT-6c" x="722.509766"/>
      <use xlink:href="#ArialMT-20" x="744.726562"/>
      <use xlink:href="#ArialMT-70" x="772.509766"/>
      <use xlink:href="#ArialMT-72" x="828.125"/>
      <use xlink:href="#ArialMT-6f" x="861.425781"/>
      <use xlink:href="#ArialMT-70" x="917.041016"/>
      <use xlink:href="#ArialMT-65" x="972.65625"/>
      <use xlink:href="#ArialMT-72" x="1028.271484"/>
      <use xlink:href="#ArialMT-74" x="1061.572266"/>
      <use xlink:href="#ArialMT-69" x="1089.355469"/>
      <use xlink:href="#ArialMT-65" x="1111.572266"/>
      <use xlink:href="#ArialMT-73" x="1167.1875"/>
     </g>
    </g>
    <g id="line2d_41">
     <path d="M 499.496618 146.914063 
L 513.496618 146.914063 
L 527.496618 146.914063 
" style="fill: none; stroke: #2ca02c; stroke-width: 1.5; stroke-linecap: round"/>
    </g>
    <g id="text_37">
     <!-- FFT-applications -->
     <g style="fill: #262626" transform="translate(538.696618 151.814063) scale(0.14 -0.14)">
      <use xlink:href="#ArialMT-46"/>
      <use xlink:href="#ArialMT-46" x="61.083984"/>
      <use xlink:href="#ArialMT-54" x="122.167969"/>
      <use xlink:href="#ArialMT-2d" x="177.751953"/>
      <use xlink:href="#ArialMT-61" x="211.052734"/>
      <use xlink:href="#ArialMT-70" x="266.667969"/>
      <use xlink:href="#ArialMT-70" x="322.283203"/>
      <use xlink:href="#ArialMT-6c" x="377.898438"/>
      <use xlink:href="#ArialMT-69" x="400.115234"/>
      <use xlink:href="#ArialMT-63" x="422.332031"/>
      <use xlink:href="#ArialMT-61" x="472.332031"/>
      <use xlink:href="#ArialMT-74" x="527.947266"/>
      <use xlink:href="#ArialMT-69" x="555.730469"/>
      <use xlink:href="#ArialMT-6f" x="577.947266"/>
      <use xlink:href="#ArialMT-6e" x="633.5625"/>
      <use xlink:href="#ArialMT-73" x="689.177734"/>
     </g>
    </g>
   </g>
  </g>
  <g id="axes_3">
   <g id="patch_12">
    <path d="M 774.211765 512.64 
L 1036.8 512.64 
L 1036.8 69.12 
L 774.211765 69.12 
z
" style="fill: #ffffff"/>
   </g>
   <g id="matplotlib.axis_5">
    <g id="xtick_13">
     <g id="line2d_42"/>
     <g id="text_38">
      <!-- 0 -->
      <g style="fill: #262626" transform="translate(779.843659 526.160938) scale(0.14 -0.14)">
       <use xlink:href="#ArialMT-30"/>
      </g>
     </g>
    </g>
    <g id="xtick_14">
     <g id="line2d_43"/>
     <g id="text_39">
      <!-- 20 -->
      <g style="fill: #262626" transform="translate(824.176574 526.160938) scale(0.14 -0.14)">
       <use xlink:href="#ArialMT-32"/>
       <use xlink:href="#ArialMT-30" x="55.615234"/>
      </g>
     </g>
    </g>
    <g id="xtick_15">
     <g id="line2d_44"/>
     <g id="text_40">
      <!-- 40 -->
      <g style="fill: #262626" transform="translate(872.402145 526.160938) scale(0.14 -0.14)">
       <use xlink:href="#ArialMT-34"/>
       <use xlink:href="#ArialMT-30" x="55.615234"/>
      </g>
     </g>
    </g>
    <g id="xtick_16">
     <g id="line2d_45"/>
     <g id="text_41">
      <!-- 60 -->
      <g style="fill: #262626" transform="translate(920.627716 526.160938) scale(0.14 -0.14)">
       <use xlink:href="#ArialMT-36"/>
       <use xlink:href="#ArialMT-30" x="55.615234"/>
      </g>
     </g>
    </g>
    <g id="xtick_17">
     <g id="line2d_46"/>
     <g id="text_42">
      <!-- 80 -->
      <g style="fill: #262626" transform="translate(968.853287 526.160938) scale(0.14 -0.14)">
       <use xlink:href="#ArialMT-38"/>
       <use xlink:href="#ArialMT-30" x="55.615234"/>
      </g>
     </g>
    </g>
    <g id="xtick_18">
     <g id="line2d_47"/>
     <g id="text_43">
      <!-- 100 -->
      <g style="fill: #262626" transform="translate(1013.186202 526.160938) scale(0.14 -0.14)">
       <use xlink:href="#ArialMT-31"/>
       <use xlink:href="#ArialMT-30" x="55.615234"/>
       <use xlink:href="#ArialMT-30" x="111.230469"/>
      </g>
     </g>
    </g>
    <g id="text_44">
     <!-- Epochs -->
     <g style="fill: #262626" transform="translate(882.158695 542.964375) scale(0.14 -0.14)">
      <use xlink:href="#ArialMT-45"/>
      <use xlink:href="#ArialMT-70" x="66.699219"/>
      <use xlink:href="#ArialMT-6f" x="122.314453"/>
      <use xlink:href="#ArialMT-63" x="177.929688"/>
      <use xlink:href="#ArialMT-68" x="227.929688"/>
      <use xlink:href="#ArialMT-73" x="283.544922"/>
     </g>
    </g>
   </g>
   <g id="matplotlib.axis_6">
    <g id="ytick_12">
     <g id="line2d_48"/>
     <g id="text_45">
      <!-- 50 -->
      <g style="fill: #262626" transform="translate(755.14114 508.495796) scale(0.14 -0.14)">
       <use xlink:href="#ArialMT-35"/>
       <use xlink:href="#ArialMT-30" x="55.615234"/>
      </g>
     </g>
    </g>
    <g id="ytick_13">
     <g id="line2d_49"/>
     <g id="text_46">
      <!-- 75 -->
      <g style="fill: #262626" transform="translate(755.14114 458.732996) scale(0.14 -0.14)">
       <defs>
        <path id="ArialMT-37" d="M 303 3981 
L 303 4522 
L 3269 4522 
L 3269 4084 
Q 2831 3619 2401 2847 
Q 1972 2075 1738 1259 
Q 1569 684 1522 0 
L 944 0 
Q 953 541 1156 1306 
Q 1359 2072 1739 2783 
Q 2119 3494 2547 3981 
L 303 3981 
z
" transform="scale(0.015625)"/>
       </defs>
       <use xlink:href="#ArialMT-37"/>
       <use xlink:href="#ArialMT-35" x="55.615234"/>
      </g>
     </g>
    </g>
    <g id="ytick_14">
     <g id="line2d_50"/>
     <g id="text_47">
      <!-- 100 -->
      <g style="fill: #262626" transform="translate(747.355827 408.970197) scale(0.14 -0.14)">
       <use xlink:href="#ArialMT-31"/>
       <use xlink:href="#ArialMT-30" x="55.615234"/>
       <use xlink:href="#ArialMT-30" x="111.230469"/>
      </g>
     </g>
    </g>
    <g id="ytick_15">
     <g id="line2d_51"/>
     <g id="text_48">
      <!-- 125 -->
      <g style="fill: #262626" transform="translate(747.355827 359.207397) scale(0.14 -0.14)">
       <use xlink:href="#ArialMT-31"/>
       <use xlink:href="#ArialMT-32" x="55.615234"/>
       <use xlink:href="#ArialMT-35" x="111.230469"/>
      </g>
     </g>
    </g>
    <g id="ytick_16">
     <g id="line2d_52"/>
     <g id="text_49">
      <!-- 150 -->
      <g style="fill: #262626" transform="translate(747.355827 309.444598) scale(0.14 -0.14)">
       <use xlink:href="#ArialMT-31"/>
       <use xlink:href="#ArialMT-35" x="55.615234"/>
       <use xlink:href="#ArialMT-30" x="111.230469"/>
      </g>
     </g>
    </g>
    <g id="ytick_17">
     <g id="line2d_53"/>
     <g id="text_50">
      <!-- 175 -->
      <g style="fill: #262626" transform="translate(747.355827 259.681798) scale(0.14 -0.14)">
       <use xlink:href="#ArialMT-31"/>
       <use xlink:href="#ArialMT-37" x="55.615234"/>
       <use xlink:href="#ArialMT-35" x="111.230469"/>
      </g>
     </g>
    </g>
    <g id="ytick_18">
     <g id="line2d_54"/>
     <g id="text_51">
      <!-- 200 -->
      <g style="fill: #262626" transform="translate(747.355827 209.918999) scale(0.14 -0.14)">
       <use xlink:href="#ArialMT-32"/>
       <use xlink:href="#ArialMT-30" x="55.615234"/>
       <use xlink:href="#ArialMT-30" x="111.230469"/>
      </g>
     </g>
    </g>
    <g id="ytick_19">
     <g id="line2d_55"/>
     <g id="text_52">
      <!-- 225 -->
      <g style="fill: #262626" transform="translate(747.355827 160.156199) scale(0.14 -0.14)">
       <use xlink:href="#ArialMT-32"/>
       <use xlink:href="#ArialMT-32" x="55.615234"/>
       <use xlink:href="#ArialMT-35" x="111.230469"/>
      </g>
     </g>
    </g>
    <g id="ytick_20">
     <g id="line2d_56"/>
     <g id="text_53">
      <!-- 250 -->
      <g style="fill: #262626" transform="translate(747.355827 110.3934) scale(0.14 -0.14)">
       <use xlink:href="#ArialMT-32"/>
       <use xlink:href="#ArialMT-35" x="55.615234"/>
       <use xlink:href="#ArialMT-30" x="111.230469"/>
      </g>
     </g>
    </g>
    <g id="text_54">
     <!-- Loss(BCE) -->
     <g style="fill: #262626" transform="translate(740.409265 324.720625) rotate(-90) scale(0.14 -0.14)">
      <use xlink:href="#ArialMT-4c"/>
      <use xlink:href="#ArialMT-6f" x="55.615234"/>
      <use xlink:href="#ArialMT-73" x="111.230469"/>
      <use xlink:href="#ArialMT-73" x="161.230469"/>
      <use xlink:href="#ArialMT-28" x="211.230469"/>
      <use xlink:href="#ArialMT-42" x="244.53125"/>
      <use xlink:href="#ArialMT-43" x="311.230469"/>
      <use xlink:href="#ArialMT-45" x="383.447266"/>
      <use xlink:href="#ArialMT-29" x="450.146484"/>
     </g>
    </g>
   </g>
   <g id="PolyCollection_7"/>
   <g id="PolyCollection_8"/>
   <g id="PolyCollection_9"/>
   <g id="line2d_57">
    <path d="M 786.147594 290.671392 
L 788.558872 305.734783 
L 790.970151 318.503722 
L 793.381429 331.143425 
L 795.792708 349.366681 
L 798.203986 375.762301 
L 800.615265 401.817671 
L 803.026544 423.842372 
L 805.437822 439.49495 
L 807.849101 449.734654 
L 810.260379 456.2447 
L 812.671658 460.525124 
L 815.082936 464.089281 
L 817.494215 466.799051 
L 819.905493 468.855078 
L 822.316772 470.330209 
L 824.728051 471.575706 
L 827.139329 471.87787 
L 829.550608 470.906365 
L 831.961886 470.311666 
L 834.373165 469.283668 
L 836.784443 468.583666 
L 839.195722 467.771573 
L 841.607 466.477874 
L 844.018279 465.117051 
L 846.429558 465.411105 
L 848.840836 467.725194 
L 851.252115 469.440027 
L 853.663393 471.109089 
L 856.074672 473.932043 
L 858.48595 475.411548 
L 860.897229 475.394342 
L 863.308508 476.405923 
L 865.719786 475.852508 
L 868.131065 474.438464 
L 870.542343 475.180927 
L 872.953622 476.027334 
L 875.3649 474.626669 
L 877.776179 474.425298 
L 880.187457 475.369041 
L 882.598736 474.985813 
L 885.010015 475.594347 
L 887.421293 476.831902 
L 889.832572 475.939427 
L 892.24385 476.121657 
L 894.655129 476.126091 
L 897.066407 475.780957 
L 899.477686 477.016538 
L 901.888965 477.748796 
L 904.300243 477.633288 
L 906.711522 478.737248 
L 909.1228 478.916539 
L 911.534079 478.687619 
L 913.945357 478.825656 
L 916.356636 478.789634 
L 918.767914 478.811647 
L 921.179193 479.112998 
L 923.590472 479.417098 
L 926.00175 479.460182 
L 928.413029 479.558134 
L 930.824307 479.581195 
L 933.235586 479.865401 
L 935.646864 480.703493 
L 938.058143 481.287402 
L 940.469421 481.761673 
L 942.8807 481.617532 
L 945.291979 481.072477 
L 947.703257 481.507673 
L 950.114536 481.306575 
L 952.525814 483.33847 
L 954.937093 480.565562 
L 957.348371 484.043719 
L 959.75965 482.59278 
L 962.170929 483.165854 
L 964.582207 484.920976 
L 966.993486 482.893265 
L 969.404764 484.076734 
L 971.816043 485.606984 
L 974.227321 482.878056 
L 976.6386 484.677948 
L 979.049878 486.339288 
L 981.461157 484.83528 
L 983.872436 486.211638 
L 986.283714 487.638067 
L 988.694993 486.161219 
L 991.106271 486.759298 
L 993.51755 487.121402 
L 995.928828 485.959772 
L 998.340107 487.968561 
L 1000.751386 489.618836 
L 1003.162664 488.161344 
L 1005.573943 489.764148 
L 1007.985221 489.814673 
L 1010.3965 488.140964 
L 1012.807778 490.441036 
L 1015.219057 490.70742 
L 1017.630335 489.026734 
L 1020.041614 491.905939 
L 1022.452893 491.065091 
L 1024.864171 490.595383 
" clip-path="url(#p65e03d3856)" style="fill: none; stroke: #1f77b4; stroke-width: 1.5; stroke-linecap: round"/>
   </g>
   <g id="line2d_58">
    <path d="M 786.147594 89.28 
L 788.558872 180.629028 
L 790.970151 135.06536 
L 793.381429 101.214294 
L 795.792708 90.681037 
L 798.203986 103.822771 
L 800.615265 145.779183 
L 803.026544 207.520469 
L 805.437822 271.868532 
L 807.849101 327.703219 
L 810.260379 371.127184 
L 812.671658 402.586968 
L 815.082936 423.905426 
L 817.494215 437.601023 
L 819.905493 445.877885 
L 822.316772 450.565138 
L 824.728051 452.821807 
L 827.139329 453.418146 
L 829.550608 452.730764 
L 831.961886 451.022264 
L 834.373165 448.577618 
L 836.784443 445.771748 
L 839.195722 443.164136 
L 841.607 441.297378 
L 844.018279 440.638774 
L 846.429558 441.406295 
L 848.840836 443.536644 
L 851.252115 446.639666 
L 853.663393 450.163549 
L 856.074672 453.574126 
L 858.48595 456.452921 
L 860.897229 458.568113 
L 863.308508 459.851242 
L 865.719786 460.347914 
L 868.131065 460.157264 
L 870.542343 459.40947 
L 872.953622 458.212675 
L 875.3649 456.693185 
L 877.776179 455.009727 
L 880.187457 453.361926 
L 882.598736 451.974603 
L 885.010015 451.059804 
L 887.421293 450.759053 
L 889.832572 451.101036 
L 892.24385 451.996957 
L 894.655129 453.259357 
L 897.066407 454.677296 
L 899.477686 456.046639 
L 901.888965 457.213015 
L 904.300243 458.11041 
L 906.711522 458.747859 
L 909.1228 459.168705 
L 911.534079 459.427846 
L 913.945357 459.588548 
L 916.356636 459.706577 
L 918.767914 459.821538 
L 921.179193 459.977912 
L 923.590472 460.225101 
L 926.00175 460.606037 
L 928.413029 461.136802 
L 930.824307 461.791989 
L 933.235586 462.516107 
L 935.646864 463.240346 
L 938.058143 463.908806 
L 940.469421 464.499192 
L 942.8807 464.990397 
L 945.291979 465.38702 
L 947.703257 465.705494 
L 950.114536 465.959593 
L 952.525814 466.175528 
L 954.937093 466.379907 
L 957.348371 466.603633 
L 959.75965 466.869774 
L 962.170929 467.186942 
L 964.582207 467.54118 
L 966.993486 467.902495 
L 969.404764 468.23485 
L 971.816043 468.511303 
L 974.227321 468.721331 
L 976.6386 468.88053 
L 979.049878 468.99704 
L 981.461157 469.080429 
L 983.872436 469.147294 
L 986.283714 469.217167 
L 988.694993 469.310746 
L 991.106271 469.442002 
L 993.51755 469.611588 
L 995.928828 469.811578 
L 998.340107 470.029169 
L 1000.751386 470.247169 
L 1003.162664 470.453067 
L 1005.573943 470.643884 
L 1007.985221 470.825832 
L 1010.3965 471.007613 
L 1012.807778 471.195803 
L 1015.219057 471.400151 
L 1017.630335 471.628919 
L 1020.041614 471.883367 
L 1022.452893 472.138453 
L 1024.864171 472.380282 
" clip-path="url(#p65e03d3856)" style="fill: none; stroke: #ff7f0e; stroke-width: 1.5; stroke-linecap: round"/>
   </g>
   <g id="line2d_59">
    <path d="M 786.147594 219.384785 
L 788.558872 338.254609 
L 790.970151 345.942178 
L 793.381429 352.862256 
L 795.792708 361.350422 
L 798.203986 375.926391 
L 800.615265 394.324791 
L 803.026544 413.842552 
L 805.437822 430.927785 
L 807.849101 445.410949 
L 810.260379 458.204718 
L 812.671658 467.921721 
L 815.082936 471.510769 
L 817.494215 465.665888 
L 819.905493 446.731133 
L 822.316772 415.283726 
L 824.728051 374.933974 
L 827.139329 330.419701 
L 829.550608 286.037626 
L 831.961886 245.989871 
L 834.373165 218.215584 
L 836.784443 210.984488 
L 839.195722 225.744212 
L 841.607 257.15953 
L 844.018279 293.191484 
L 846.429558 324.390457 
L 848.840836 350.235905 
L 851.252115 370.930976 
L 853.663393 388.242486 
L 856.074672 403.874669 
L 858.48595 418.240488 
L 860.897229 430.304292 
L 863.308508 439.943905 
L 865.719786 447.96638 
L 868.131065 454.637295 
L 870.542343 459.608245 
L 872.953622 463.590818 
L 875.3649 467.197603 
L 877.776179 469.980192 
L 880.187457 472.015808 
L 882.598736 473.797234 
L 885.010015 475.502302 
L 887.421293 477.106692 
L 889.832572 478.395721 
L 892.24385 479.588773 
L 894.655129 480.623665 
L 897.066407 481.566232 
L 899.477686 482.635119 
L 901.888965 483.67412 
L 904.300243 484.658024 
L 906.711522 485.424535 
L 909.1228 485.890324 
L 911.534079 485.997882 
L 913.945357 485.745476 
L 916.356636 485.168834 
L 918.767914 484.661107 
L 921.179193 484.650514 
L 923.590472 485.234409 
L 926.00175 486.165236 
L 928.413029 487.098516 
L 930.824307 487.867898 
L 933.235586 488.573488 
L 935.646864 489.034509 
L 938.058143 489.290172 
L 940.469421 489.364571 
L 942.8807 489.267902 
L 945.291979 489.081063 
L 947.703257 488.946762 
L 950.114536 488.885599 
L 952.525814 488.891552 
L 954.937093 488.950779 
L 957.348371 489.075558 
L 959.75965 489.287401 
L 962.170929 489.449668 
L 964.582207 489.566777 
L 966.993486 489.714329 
L 969.404764 489.894705 
L 971.816043 490.097033 
L 974.227321 490.305368 
L 976.6386 490.044982 
L 979.049878 490.284548 
L 981.461157 490.556597 
L 983.872436 490.554767 
L 986.283714 490.492419 
L 988.694993 490.735151 
L 991.106271 491.201601 
L 993.51755 491.275977 
L 995.928828 490.535321 
L 998.340107 491.146847 
L 1000.751386 491.632356 
L 1003.162664 490.852238 
L 1005.573943 490.544068 
L 1007.985221 490.618178 
L 1010.3965 491.202528 
L 1012.807778 490.375317 
L 1015.219057 491.206385 
L 1017.630335 489.183746 
L 1020.041614 492.48 
L 1022.452893 490.046782 
L 1024.864171 489.486001 
" clip-path="url(#p65e03d3856)" style="fill: none; stroke: #2ca02c; stroke-width: 1.5; stroke-linecap: round"/>
   </g>
   <g id="line2d_60"/>
   <g id="line2d_61"/>
   <g id="line2d_62"/>
   <g id="patch_13">
    <path d="M 774.211765 512.64 
L 774.211765 69.12 
" style="fill: none; stroke: #262626; stroke-width: 1.25; stroke-linejoin: miter; stroke-linecap: square"/>
   </g>
   <g id="patch_14">
    <path d="M 1036.8 512.64 
L 1036.8 69.12 
" style="fill: none; stroke: #262626; stroke-width: 1.25; stroke-linejoin: miter; stroke-linecap: square"/>
   </g>
   <g id="patch_15">
    <path d="M 774.211765 512.64 
L 1036.8 512.64 
" style="fill: none; stroke: #262626; stroke-width: 1.25; stroke-linejoin: miter; stroke-linecap: square"/>
   </g>
   <g id="patch_16">
    <path d="M 774.211765 69.12 
L 1036.8 69.12 
" style="fill: none; stroke: #262626; stroke-width: 1.25; stroke-linejoin: miter; stroke-linecap: square"/>
   </g>
   <g id="text_55">
    <!-- Proximate-Dg -->
    <g style="fill: #262626" transform="translate(854.160882 63.12) scale(0.168 -0.168)">
     <defs>
      <path id="ArialMT-44" d="M 494 0 
L 494 4581 
L 2072 4581 
Q 2606 4581 2888 4516 
Q 3281 4425 3559 4188 
Q 3922 3881 4101 3404 
Q 4281 2928 4281 2316 
Q 4281 1794 4159 1391 
Q 4038 988 3847 723 
Q 3656 459 3429 307 
Q 3203 156 2883 78 
Q 2563 0 2147 0 
L 494 0 
z
M 1100 541 
L 2078 541 
Q 2531 541 2789 625 
Q 3047 709 3200 863 
Q 3416 1078 3536 1442 
Q 3656 1806 3656 2325 
Q 3656 3044 3420 3430 
Q 3184 3816 2847 3947 
Q 2603 4041 2063 4041 
L 1100 4041 
L 1100 541 
z
" transform="scale(0.015625)"/>
     </defs>
     <use xlink:href="#ArialMT-50"/>
     <use xlink:href="#ArialMT-72" x="66.699219"/>
     <use xlink:href="#ArialMT-6f" x="100"/>
     <use xlink:href="#ArialMT-78" x="155.615234"/>
     <use xlink:href="#ArialMT-69" x="205.615234"/>
     <use xlink:href="#ArialMT-6d" x="227.832031"/>
     <use xlink:href="#ArialMT-61" x="311.132812"/>
     <use xlink:href="#ArialMT-74" x="366.748047"/>
     <use xlink:href="#ArialMT-65" x="394.53125"/>
     <use xlink:href="#ArialMT-2d" x="450.146484"/>
     <use xlink:href="#ArialMT-44" x="483.447266"/>
     <use xlink:href="#ArialMT-67" x="555.664062"/>
    </g>
   </g>
   <g id="legend_3">
    <g id="text_56">
     <!-- Strategy -->
     <g style="fill: #262626" transform="translate(893.333906 91.911563) scale(0.14 -0.14)">
      <use xlink:href="#ArialMT-53"/>
      <use xlink:href="#ArialMT-74" x="66.699219"/>
      <use xlink:href="#ArialMT-72" x="94.482422"/>
      <use xlink:href="#ArialMT-61" x="127.783203"/>
      <use xlink:href="#ArialMT-74" x="183.398438"/>
      <use xlink:href="#ArialMT-65" x="211.181641"/>
      <use xlink:href="#ArialMT-67" x="266.796875"/>
      <use xlink:href="#ArialMT-79" x="322.412109"/>
     </g>
    </g>
    <g id="line2d_63">
     <path d="M 814.6025 106.979063 
L 828.6025 106.979063 
L 842.6025 106.979063 
" style="fill: none; stroke: #1f77b4; stroke-width: 1.5; stroke-linecap: round"/>
    </g>
    <g id="text_57">
     <!-- NLP strategies -->
     <g style="fill: #262626" transform="translate(853.8025 111.879063) scale(0.14 -0.14)">
      <use xlink:href="#ArialMT-4e"/>
      <use xlink:href="#ArialMT-4c" x="72.216797"/>
      <use xlink:href="#ArialMT-50" x="127.832031"/>
      <use xlink:href="#ArialMT-20" x="192.78125"/>
      <use xlink:href="#ArialMT-73" x="220.564453"/>
      <use xlink:href="#ArialMT-74" x="270.564453"/>
      <use xlink:href="#ArialMT-72" x="298.347656"/>
      <use xlink:href="#ArialMT-61" x="331.648438"/>
      <use xlink:href="#ArialMT-74" x="387.263672"/>
      <use xlink:href="#ArialMT-65" x="415.046875"/>
      <use xlink:href="#ArialMT-67" x="470.662109"/>
      <use xlink:href="#ArialMT-69" x="526.277344"/>
      <use xlink:href="#ArialMT-65" x="548.494141"/>
      <use xlink:href="#ArialMT-73" x="604.109375"/>
     </g>
    </g>
    <g id="line2d_64">
     <path d="M 814.6025 126.946562 
L 828.6025 126.946562 
L 842.6025 126.946562 
" style="fill: none; stroke: #ff7f0e; stroke-width: 1.5; stroke-linecap: round"/>
    </g>
    <g id="text_58">
     <!-- Physicochemical properties -->
     <g style="fill: #262626" transform="translate(853.8025 131.846563) scale(0.14 -0.14)">
      <use xlink:href="#ArialMT-50"/>
      <use xlink:href="#ArialMT-68" x="66.699219"/>
      <use xlink:href="#ArialMT-79" x="122.314453"/>
      <use xlink:href="#ArialMT-73" x="172.314453"/>
      <use xlink:href="#ArialMT-69" x="222.314453"/>
      <use xlink:href="#ArialMT-63" x="244.53125"/>
      <use xlink:href="#ArialMT-6f" x="294.53125"/>
      <use xlink:href="#ArialMT-63" x="350.146484"/>
      <use xlink:href="#ArialMT-68" x="400.146484"/>
      <use xlink:href="#ArialMT-65" x="455.761719"/>
      <use xlink:href="#ArialMT-6d" x="511.376953"/>
      <use xlink:href="#ArialMT-69" x="594.677734"/>
      <use xlink:href="#ArialMT-63" x="616.894531"/>
      <use xlink:href="#ArialMT-61" x="666.894531"/>
      <use xlink:href="#ArialMT-6c" x="722.509766"/>
      <use xlink:href="#ArialMT-20" x="744.726562"/>
      <use xlink:href="#ArialMT-70" x="772.509766"/>
      <use xlink:href="#ArialMT-72" x="828.125"/>
      <use xlink:href="#ArialMT-6f" x="861.425781"/>
      <use xlink:href="#ArialMT-70" x="917.041016"/>
      <use xlink:href="#ArialMT-65" x="972.65625"/>
      <use xlink:href="#ArialMT-72" x="1028.271484"/>
      <use xlink:href="#ArialMT-74" x="1061.572266"/>
      <use xlink:href="#ArialMT-69" x="1089.355469"/>
      <use xlink:href="#ArialMT-65" x="1111.572266"/>
      <use xlink:href="#ArialMT-73" x="1167.1875"/>
     </g>
    </g>
    <g id="line2d_65">
     <path d="M 814.6025 146.914063 
L 828.6025 146.914063 
L 842.6025 146.914063 
" style="fill: none; stroke: #2ca02c; stroke-width: 1.5; stroke-linecap: round"/>
    </g>
    <g id="text_59">
     <!-- FFT-applications -->
     <g style="fill: #262626" transform="translate(853.8025 151.814063) scale(0.14 -0.14)">
      <use xlink:href="#ArialMT-46"/>
      <use xlink:href="#ArialMT-46" x="61.083984"/>
      <use xlink:href="#ArialMT-54" x="122.167969"/>
      <use xlink:href="#ArialMT-2d" x="177.751953"/>
      <use xlink:href="#ArialMT-61" x="211.052734"/>
      <use xlink:href="#ArialMT-70" x="266.667969"/>
      <use xlink:href="#ArialMT-70" x="322.283203"/>
      <use xlink:href="#ArialMT-6c" x="377.898438"/>
      <use xlink:href="#ArialMT-69" x="400.115234"/>
      <use xlink:href="#ArialMT-63" x="422.332031"/>
      <use xlink:href="#ArialMT-61" x="472.332031"/>
      <use xlink:href="#ArialMT-74" x="527.947266"/>
      <use xlink:href="#ArialMT-69" x="555.730469"/>
      <use xlink:href="#ArialMT-6f" x="577.947266"/>
      <use xlink:href="#ArialMT-6e" x="633.5625"/>
      <use xlink:href="#ArialMT-73" x="689.177734"/>
     </g>
    </g>
   </g>
  </g>
 </g>
 <defs>
  <clipPath id="p8171c3f08b">
   <rect x="144" y="69.12" width="262.588235" height="443.52"/>
  </clipPath>
  <clipPath id="p69f50e8f65">
   <rect x="459.105882" y="69.12" width="262.588235" height="443.52"/>
  </clipPath>
  <clipPath id="p65e03d3856">
   <rect x="774.211765" y="69.12" width="262.588235" height="443.52"/>
  </clipPath>
 </defs>
</svg>
